<?xml version="1.0"?>
<svg xmlns="http://www.w3.org/2000/svg" viewBox="0 0 512 512" width="512" height="512"><g id="Filled_outline" data-name="Filled outline"><circle cx="424" cy="88" r="64" style="fill:#d5d5d3"/><path d="M408,88V328A128,128,0,0,1,280,456h0v32h0A160,160,0,0,0,440,328V88Z" style="fill:#2c86d1"/><circle cx="424" cy="88" r="32" style="fill:#dfdfdd"/><path d="M280,312a88,88,0,1,0,88,88A88,88,0,0,0,280,312Zm0,144a56,56,0,1,1,56-56A56,56,0,0,1,280,456Z" style="fill:#348ed8"/><path d="M230.126,425.458c-16.919-8.493-31.043-21.7-38.052-28.926-.044,1.151-.074,2.306-.074,3.468a88.011,88.011,0,0,0,77.534,87.378c.3-10.305.579-22.193.615-32.259A56.051,56.051,0,0,1,230.126,425.458Z" style="fill:#2c86d1"/><path d="M88,24h16a16,16,0,0,1,16,16v0a16,16,0,0,1-16,16H88a0,0,0,0,1,0,0V24A0,0,0,0,1,88,24Z" style="fill:#eaeae8"/><path d="M168,24h16a0,0,0,0,1,0,0V56a0,0,0,0,1,0,0H168a16,16,0,0,1-16-16v0A16,16,0,0,1,168,24Z" style="fill:#eaeae8"/><path d="M64,24A40,40,0,0,0,24,64v88H56V64a8,8,0,0,1,8-8H88V24Z" style="fill:#dfdfdd"/><path d="M208,24H184V56h24a8,8,0,0,1,8,8v88h32V64A40,40,0,0,0,208,24Z" style="fill:#dfdfdd"/><path d="M280,456A128,128,0,0,1,152,328V278.857A112.018,112.018,0,0,0,248,168V152H216v16a80,80,0,0,1-80,80h0a80,80,0,0,1-80-80V152H24v16a112.018,112.018,0,0,0,96,110.857V328A160,160,0,0,0,280,488" style="fill:#348ed8"/><path d="M424,16a71.744,71.744,0,0,0-49.255,19.479l10.947,11.67a56.005,56.005,0,1,1,69.053,87.668l8.8,13.364A72.007,72.007,0,0,0,424,16Z"/><path d="M464,88a40,40,0,1,0-64,31.978v18.638a56.038,56.038,0,0,1-22.826-81.345l-13.369-8.792A72.041,72.041,0,0,0,400,155.906V328a120.049,120.049,0,0,1-24,71.968,96.01,96.01,0,0,0-190.05-19.306l15.676,3.207A80.017,80.017,0,1,1,280,480,152.194,152.194,0,0,1,133.2,367.564l-15.451,4.155A168.218,168.218,0,0,0,280,496c92.636,0,168-75.364,168-168V119.978A39.962,39.962,0,0,0,464,88ZM432,328a152.1,152.1,0,0,1-77.443,132.417,95.213,95.213,0,0,0,17.14-32A136.084,136.084,0,0,0,416,328V127.2a40.154,40.154,0,0,0,16,0Zm-8-216a24,24,0,1,1,24-24A24.028,24.028,0,0,1,424,112Z"/><path d="M128,328V278.857a8,8,0,0,0-6.867-7.919A104.02,104.02,0,0,1,32,168v-8H48v8a88,88,0,0,0,176,0v-8h16v8a104.02,104.02,0,0,1-89.133,102.938A8,8,0,0,0,144,278.857V328c0,74.99,61.01,136,136,136a64.064,64.064,0,1,0-53.192-28.455A120.136,120.136,0,0,1,160,328V285.588A120.035,120.035,0,0,0,256,168V64a48.053,48.053,0,0,0-48-48H168a24,24,0,0,0,0,48h40V168a72,72,0,0,1-144,0V64h40a24,24,0,0,0,0-48H64A48.053,48.053,0,0,0,16,64H32A32.036,32.036,0,0,1,64,32H80V48H64A16.019,16.019,0,0,0,48,64v80H32V80.542H16V168a120.035,120.035,0,0,0,96,117.588V328a170.058,170.058,0,0,0,1.582,23.142l15.85-2.184A153.933,153.933,0,0,1,128,328Zm104,72a48,48,0,1,1,48,48A48.053,48.053,0,0,1,232,400ZM160,40a8.009,8.009,0,0,1,8-8h8V48h-8A8.009,8.009,0,0,1,160,40Zm32,8V32h16a32.036,32.036,0,0,1,32,32v80H224V64a16.019,16.019,0,0,0-16-16Zm-80-8a8.009,8.009,0,0,1-8,8H96V32h8A8.009,8.009,0,0,1,112,40Z"/></g></svg>
