<?xml version="1.0" encoding="iso-8859-1"?>
<!-- Generator: Adobe Illustrator 19.0.0, SVG Export Plug-In . SVG Version: 6.00 Build 0)  -->
<svg version="1.1" id="Layer_1" xmlns="http://www.w3.org/2000/svg" xmlns:xlink="http://www.w3.org/1999/xlink" x="0px" y="0px"
	 viewBox="0 0 512 512" style="enable-background:new 0 0 512 512;" xml:space="preserve">
<path style="fill:#E7812E;" d="M352.001,279.27v126.484c0,16.84-11.307,32.331-27.826,35.605
	c-22.262,4.411-41.992-12.56-41.992-34.207l0.116-93.09H178.238c-4.097,0-7.19-3.718-6.443-7.746l11.48-61.954h133.817
	C336.292,244.361,352.001,260.07,352.001,279.27z"/>
<path style="fill:#F39E31;" d="M107.606,512c-6.114,0-12.301-1.608-17.926-4.983c-16.534-9.92-21.891-31.363-11.971-47.891
	c42.42-70.698,64.841-163.288,64.841-245.742v-73.749c0-19.278,15.631-34.909,34.909-34.909s34.909,15.631,34.909,34.909v73.749
	c0,95.106-25.864,200.118-74.794,281.662C131.026,505.955,119.463,512,107.606,512z"/>
<g>
	<path style="fill:#F9BC35;" d="M177.457,314.178c-8.932,0-17.869-3.409-24.682-10.227l-69.817-69.817
		c-13.636-13.631-13.636-35.733,0-49.363l69.817-69.817c13.625-13.636,35.738-13.636,49.363,0c13.636,13.631,13.636,35.733,0,49.363
		l-45.13,45.136l45.13,45.136c13.636,13.631,13.636,35.733,0,49.363C195.327,310.769,186.389,314.178,177.457,314.178z"/>
	<path style="fill:#F9BC35;" d="M194.911,104.726c-28.874,0-52.363-23.489-52.363-52.363S166.037,0,194.911,0
		s52.363,23.489,52.363,52.363S223.787,104.726,194.911,104.726z"/>
</g>
<path style="fill:#4BB8E6;" d="M421.818,511.994H212.366c-9.636,0-17.454-7.813-17.454-17.454c0-48.124,39.148-87.272,87.272-87.272
	h69.817c48.124,0,87.272,39.148,87.272,87.272C439.272,504.182,431.455,511.994,421.818,511.994z"/>
<g>
</g>
<g>
</g>
<g>
</g>
<g>
</g>
<g>
</g>
<g>
</g>
<g>
</g>
<g>
</g>
<g>
</g>
<g>
</g>
<g>
</g>
<g>
</g>
<g>
</g>
<g>
</g>
<g>
</g>
</svg>
