<svg version="1.1" viewBox="0.0 0.0 600.0 371.0" fill="none" stroke="none" stroke-linecap="square" stroke-miterlimit="10" width="600" height="371" xmlns:xlink="http://www.w3.org/1999/xlink" xmlns="http://www.w3.org/2000/svg"><path fill="#ffffff" d="M0 0L600.0 0L600.0 371.0L0 371.0L0 0Z" fill-rule="nonzero"/><path stroke="#cccccc" stroke-width="1.0" stroke-linecap="butt" d="M55.5 300.5L581.5 300.5" fill-rule="nonzero"/><path stroke="#cccccc" stroke-width="1.0" stroke-linecap="butt" d="M55.5 237.5L581.5 237.5" fill-rule="nonzero"/><path stroke="#cccccc" stroke-width="1.0" stroke-linecap="butt" d="M55.5 175.5L581.5 175.5" fill-rule="nonzero"/><path stroke="#cccccc" stroke-width="1.0" stroke-linecap="butt" d="M55.5 112.5L581.5 112.5" fill-rule="nonzero"/><path stroke="#cccccc" stroke-width="1.0" stroke-linecap="butt" d="M55.5 49.5L581.5 49.5" fill-rule="nonzero"/><clipPath id="id_0"><path d="M55.55 49.916668L581.45 49.916668L581.45 300.45L55.55 300.45L55.55 49.916668Z" clip-rule="nonzero"/></clipPath><path stroke="#000000" stroke-width="0.0" stroke-linecap="butt" stroke-opacity="0.0" clip-path="url(#id_0)" d="M110.0 300.0L84.0 300.0L84.0 300.0C84.0 300.0 84.0 300.0 84.0 300.0L110.0 300.0C110.0 300.0 110.0 300.0 110.0 300.0Z" fill-rule="nonzero"/><path fill="#4285f4" clip-path="url(#id_0)" d="M110.0 300.0L84.0 300.0L84.0 300.0C84.0 300.0 84.0 300.0 84.0 300.0L110.0 300.0C110.0 300.0 110.0 300.0 110.0 300.0Z" fill-rule="nonzero"/><path stroke="#000000" stroke-width="0.0" stroke-linecap="butt" stroke-opacity="0.0" clip-path="url(#id_0)" d="M193.0 300.0L167.0 300.0L167.0 271.0C167.0 269.89542 167.89543 269.0 169.0 269.0L191.0 269.0C192.10457 269.0 193.0 269.89542 193.0 271.0Z" fill-rule="nonzero"/><path fill="#4285f4" clip-path="url(#id_0)" d="M193.0 300.0L167.0 300.0L167.0 271.0C167.0 269.89542 167.89543 269.0 169.0 269.0L191.0 269.0C192.10457 269.0 193.0 269.89542 193.0 271.0Z" fill-rule="nonzero"/><path stroke="#000000" stroke-width="0.0" stroke-linecap="butt" stroke-opacity="0.0" clip-path="url(#id_0)" d="M276.0 300.0L250.0 300.0L250.0 240.0C250.0 238.89543 250.89543 238.0 252.0 238.0L274.0 238.0C275.10458 238.0 276.0 238.89543 276.0 240.0Z" fill-rule="nonzero"/><path fill="#4285f4" clip-path="url(#id_0)" d="M276.0 300.0L250.0 300.0L250.0 240.0C250.0 238.89543 250.89543 238.0 252.0 238.0L274.0 238.0C275.10458 238.0 276.0 238.89543 276.0 240.0Z" fill-rule="nonzero"/><path stroke="#000000" stroke-width="0.0" stroke-linecap="butt" stroke-opacity="0.0" clip-path="url(#id_0)" d="M359.0 300.0L333.0 300.0L333.0 209.0C333.0 207.89543 333.89542 207.0 335.0 207.0L357.0 207.0C358.10458 207.0 359.0 207.89543 359.0 209.0Z" fill-rule="nonzero"/><path fill="#4285f4" clip-path="url(#id_0)" d="M359.0 300.0L333.0 300.0L333.0 209.0C333.0 207.89543 333.89542 207.0 335.0 207.0L357.0 207.0C358.10458 207.0 359.0 207.89543 359.0 209.0Z" fill-rule="nonzero"/><path stroke="#000000" stroke-width="0.0" stroke-linecap="butt" stroke-opacity="0.0" clip-path="url(#id_0)" d="M442.0 300.0L416.0 300.0L416.0 177.0C416.0 175.89543 416.89542 175.0 418.0 175.0L440.0 175.0C441.10458 175.0 442.0 175.89543 442.0 177.0Z" fill-rule="nonzero"/><path fill="#4285f4" clip-path="url(#id_0)" d="M442.0 300.0L416.0 300.0L416.0 177.0C416.0 175.89543 416.89542 175.0 418.0 175.0L440.0 175.0C441.10458 175.0 442.0 175.89543 442.0 177.0Z" fill-rule="nonzero"/><path stroke="#000000" stroke-width="0.0" stroke-linecap="butt" stroke-opacity="0.0" clip-path="url(#id_0)" d="M525.0 300.0L499.0 300.0L499.0 146.0C499.0 144.89543 499.89542 144.0 501.0 144.0L523.0 144.0C524.10455 144.0 525.0 144.89543 525.0 146.0Z" fill-rule="nonzero"/><path fill="#4285f4" clip-path="url(#id_0)" d="M525.0 300.0L499.0 300.0L499.0 146.0C499.0 144.89543 499.89542 144.0 501.0 144.0L523.0 144.0C524.10455 144.0 525.0 144.89543 525.0 146.0Z" fill-rule="nonzero"/><path stroke="#000000" stroke-width="0.0" stroke-linecap="butt" stroke-opacity="0.0" clip-path="url(#id_0)" d="M137.0 300.0L111.0 300.0L111.0 240.0C111.0 238.89543 111.89543 238.0 113.0 238.0L135.0 238.0C136.10457 238.0 137.0 238.89543 137.0 240.0Z" fill-rule="nonzero"/><path fill="#351c75" clip-path="url(#id_0)" d="M137.0 300.0L111.0 300.0L111.0 240.0C111.0 238.89543 111.89543 238.0 113.0 238.0L135.0 238.0C136.10457 238.0 137.0 238.89543 137.0 240.0Z" fill-rule="nonzero"/><path stroke="#000000" stroke-width="0.0" stroke-linecap="butt" stroke-opacity="0.0" clip-path="url(#id_0)" d="M220.0 300.0L194.0 300.0L194.0 209.0C194.0 207.89543 194.89543 207.0 196.0 207.0L218.0 207.0C219.10457 207.0 220.0 207.89543 220.0 209.0Z" fill-rule="nonzero"/><path fill="#351c75" clip-path="url(#id_0)" d="M220.0 300.0L194.0 300.0L194.0 209.0C194.0 207.89543 194.89543 207.0 196.0 207.0L218.0 207.0C219.10457 207.0 220.0 207.89543 220.0 209.0Z" fill-rule="nonzero"/><path stroke="#000000" stroke-width="0.0" stroke-linecap="butt" stroke-opacity="0.0" clip-path="url(#id_0)" d="M303.0 300.0L277.0 300.0L277.0 177.0C277.0 175.89543 277.89542 175.0 279.0 175.0L301.0 175.0C302.10458 175.0 303.0 175.89543 303.0 177.0Z" fill-rule="nonzero"/><path fill="#351c75" clip-path="url(#id_0)" d="M303.0 300.0L277.0 300.0L277.0 177.0C277.0 175.89543 277.89542 175.0 279.0 175.0L301.0 175.0C302.10458 175.0 303.0 175.89543 303.0 177.0Z" fill-rule="nonzero"/><path stroke="#000000" stroke-width="0.0" stroke-linecap="butt" stroke-opacity="0.0" clip-path="url(#id_0)" d="M386.0 300.0L360.0 300.0L360.0 146.0C360.0 144.89543 360.89542 144.0 362.0 144.0L384.0 144.0C385.10458 144.0 386.0 144.89543 386.0 146.0Z" fill-rule="nonzero"/><path fill="#351c75" clip-path="url(#id_0)" d="M386.0 300.0L360.0 300.0L360.0 146.0C360.0 144.89543 360.89542 144.0 362.0 144.0L384.0 144.0C385.10458 144.0 386.0 144.89543 386.0 146.0Z" fill-rule="nonzero"/><path stroke="#000000" stroke-width="0.0" stroke-linecap="butt" stroke-opacity="0.0" clip-path="url(#id_0)" d="M469.0 300.0L443.0 300.0L443.0 115.0C443.0 113.89543 443.89542 113.0 445.0 113.0L467.0 113.0C468.10458 113.0 469.0 113.89543 469.0 115.0Z" fill-rule="nonzero"/><path fill="#351c75" clip-path="url(#id_0)" d="M469.0 300.0L443.0 300.0L443.0 115.0C443.0 113.89543 443.89542 113.0 445.0 113.0L467.0 113.0C468.10458 113.0 469.0 113.89543 469.0 115.0Z" fill-rule="nonzero"/><path stroke="#000000" stroke-width="0.0" stroke-linecap="butt" stroke-opacity="0.0" clip-path="url(#id_0)" d="M552.0 300.0L526.0 300.0L526.0 83.0C526.0 81.89543 526.89545 81.0 528.0 81.0L550.0 81.0C551.10455 81.0 552.0 81.89543 552.0 83.0Z" fill-rule="nonzero"/><path fill="#351c75" clip-path="url(#id_0)" d="M552.0 300.0L526.0 300.0L526.0 83.0C526.0 81.89543 526.89545 81.0 528.0 81.0L550.0 81.0C551.10455 81.0 552.0 81.89543 552.0 83.0Z" fill-rule="nonzero"/><path fill="#000000" d="M275.875 349.45L275.875 340.85626L277.60938 340.85626L277.60938 344.2469L281.01562 344.2469L281.01562 340.85626L282.75 340.85626L282.75 349.45L281.01562 349.45L281.01562 345.7L277.60938 345.7L277.60938 349.45L275.875 349.45ZM284.48438 346.2469Q284.48438 345.4344 284.89062 344.66876Q285.29688 343.8875 286.03125 343.4969Q286.76562 343.09064 287.6875 343.09064Q289.09375 343.09064 290.0 344.0125Q290.90625 344.91876 290.90625 346.325Q290.90625 347.73126 289.98438 348.66876Q289.07812 349.59064 287.70312 349.59064Q286.84375 349.59064 286.0625 349.2Q285.29688 348.8094 284.89062 348.075Q284.48438 347.325 284.48438 346.2469ZM286.17188 346.34064Q286.17188 347.2625 286.60938 347.7625Q287.04688 348.2469 287.6875 348.2469Q288.34375 348.2469 288.76562 347.7625Q289.20312 347.2625 289.20312 346.325Q289.20312 345.41876 288.76562 344.9344Q288.34375 344.4344 287.6875 344.4344Q287.04688 344.4344 286.60938 344.9344Q286.17188 345.41876 286.17188 346.34064ZM293.4375 349.45L291.79688 349.45L291.79688 343.23126L293.32812 343.23126L293.32812 344.10626Q293.71875 343.48126 294.03125 343.29376Q294.34375 343.09064 294.73438 343.09064Q295.29688 343.09064 295.82812 343.40314L295.3125 344.825Q294.89062 344.5594 294.54688 344.5594Q294.1875 344.5594 293.95312 344.7625Q293.71875 344.95 293.57812 345.45Q293.4375 345.9344 293.4375 347.52814L293.4375 349.45ZM298.09375 345.1219L296.59375 344.85626Q296.84375 343.95 297.45312 343.52814Q298.07812 343.09064 299.29688 343.09064Q300.39062 343.09064 300.92188 343.35626Q301.46875 343.60626 301.6875 344.0125Q301.90625 344.40314 301.90625 345.48126L301.89062 347.40314Q301.89062 348.23126 301.96875 348.6219Q302.04688 348.9969 302.26562 349.45L300.64062 349.45Q300.57812 349.27814 300.48438 348.96564Q300.4375 348.8094 300.42188 348.7625Q300.0 349.1844 299.51562 349.3875Q299.04688 349.59064 298.5 349.59064Q297.53125 349.59064 296.96875 349.075Q296.42188 348.54376 296.42188 347.7469Q296.42188 347.21564 296.67188 346.8094Q296.9375 346.40314 297.39062 346.1844Q297.84375 345.95 298.70312 345.79376Q299.84375 345.575 300.29688 345.3875L300.29688 345.23126Q300.29688 344.7469 300.0625 344.54376Q299.82812 344.34064 299.17188 344.34064Q298.73438 344.34064 298.48438 344.5125Q298.25 344.6844 298.09375 345.1219ZM300.29688 346.46564Q299.98438 346.5594 299.29688 346.71564Q298.60938 346.85626 298.39062 346.9969Q298.07812 347.23126 298.07812 347.575Q298.07812 347.91876 298.32812 348.1844Q298.59375 348.4344 298.98438 348.4344Q299.4375 348.4344 299.84375 348.1375Q300.14062 347.91876 300.23438 347.59064Q300.29688 347.3875 300.29688 346.79376L300.29688 346.46564ZM298.09375 342.46564L298.90625 340.71564L300.75 340.71564L299.14062 342.46564L298.09375 342.46564ZM305.4375 349.45L303.79688 349.45L303.79688 343.23126L305.32812 343.23126L305.32812 344.10626Q305.71875 343.48126 306.03125 343.29376Q306.34375 343.09064 306.73438 343.09064Q307.29688 343.09064 307.82812 343.40314L307.3125 344.825Q306.89062 344.5594 306.54688 344.5594Q306.1875 344.5594 305.95312 344.7625Q305.71875 344.95 305.57812 345.45Q305.4375 345.9344 305.4375 347.52814L305.4375 349.45ZM308.85938 342.3875L308.85938 340.85626L310.51562 340.85626L310.51562 342.3875L308.85938 342.3875ZM308.85938 349.45L308.85938 343.23126L310.51562 343.23126L310.51562 349.45L308.85938 349.45ZM311.48438 346.2469Q311.48438 345.4344 311.89062 344.66876Q312.29688 343.8875 313.03125 343.4969Q313.76562 343.09064 314.6875 343.09064Q316.09375 343.09064 317.0 344.0125Q317.90625 344.91876 317.90625 346.325Q317.90625 347.73126 316.98438 348.66876Q316.07812 349.59064 314.70312 349.59064Q313.84375 349.59064 313.0625 349.2Q312.29688 348.8094 311.89062 348.075Q311.48438 347.325 311.48438 346.2469ZM313.17188 346.34064Q313.17188 347.2625 313.60938 347.7625Q314.04688 348.2469 314.6875 348.2469Q315.34375 348.2469 315.76562 347.7625Q316.20312 347.2625 316.20312 346.325Q316.20312 345.41876 315.76562 344.9344Q315.34375 344.4344 314.6875 344.4344Q314.04688 344.4344 313.60938 344.9344Q313.17188 345.41876 313.17188 346.34064ZM327.5625 349.45L326.04688 349.45L326.04688 348.52814Q325.65625 349.075 325.14062 349.34064Q324.625 349.59064 324.09375 349.59064Q323.01562 349.59064 322.25 348.73126Q321.5 347.85626 321.5 346.3094Q321.5 344.73126 322.23438 343.91876Q322.98438 343.09064 324.125 343.09064Q325.15625 343.09064 325.92188 343.95L325.92188 340.85626L327.5625 340.85626L327.5625 349.45ZM323.17188 346.2Q323.17188 347.2 323.45312 347.6375Q323.84375 348.29376 324.5625 348.29376Q325.125 348.29376 325.51562 347.8094Q325.92188 347.325 325.92188 346.35626Q325.92188 345.29376 325.53125 344.825Q325.15625 344.34064 324.54688 344.34064Q323.96875 344.34064 323.5625 344.8094Q323.17188 345.27814 323.17188 346.2ZM332.46875 347.46564L334.10938 347.7469Q333.79688 348.65314 333.10938 349.1219Q332.42188 349.59064 331.40625 349.59064Q329.78125 349.59064 329.0 348.52814Q328.375 347.6844 328.375 346.3875Q328.375 344.84064 329.1875 343.96564Q330.0 343.09064 331.23438 343.09064Q332.625 343.09064 333.42188 344.0125Q334.23438 344.91876 334.1875 346.8094L330.0625 346.8094Q330.09375 347.54376 330.46875 347.95Q330.84375 348.35626 331.42188 348.35626Q331.79688 348.35626 332.0625 348.15314Q332.32812 347.9344 332.46875 347.46564ZM332.5625 345.8094Q332.54688 345.09064 332.1875 344.71564Q331.84375 344.34064 331.32812 344.34064Q330.79688 344.34064 330.4375 344.73126Q330.09375 345.1375 330.09375 345.8094L332.5625 345.8094ZM338.8125 343.23126L340.34375 343.23126L340.34375 344.1375Q340.65625 343.66876 341.15625 343.3875Q341.67188 343.09064 342.29688 343.09064Q343.375 343.09064 344.125 343.9344Q344.89062 344.77814 344.89062 346.3094Q344.89062 347.85626 344.125 348.73126Q343.35938 349.59064 342.28125 349.59064Q341.76562 349.59064 341.34375 349.3875Q340.92188 349.1844 340.46875 348.6844L340.46875 351.825L338.8125 351.825L338.8125 343.23126ZM340.4375 346.23126Q340.4375 347.27814 340.85938 347.77814Q341.28125 348.27814 341.875 348.27814Q342.45312 348.27814 342.82812 347.825Q343.20312 347.35626 343.20312 346.3094Q343.20312 345.34064 342.8125 344.8719Q342.42188 344.3875 341.84375 344.3875Q341.23438 344.3875 340.82812 344.85626Q340.4375 345.325 340.4375 346.23126ZM345.85938 342.3875L345.85938 340.85626L347.51562 340.85626L347.51562 342.3875L345.85938 342.3875ZM345.85938 349.45L345.85938 343.23126L347.51562 343.23126L347.51562 349.45L345.85938 349.45ZM354.28125 345.0594L352.67188 345.35626Q352.57812 344.8719 352.28125 344.6375Q352.0 344.3875 351.54688 344.3875Q350.92188 344.3875 350.54688 344.8094Q350.1875 345.23126 350.1875 346.23126Q350.1875 347.34064 350.5625 347.79376Q350.9375 348.2469 351.5625 348.2469Q352.03125 348.2469 352.32812 347.98126Q352.625 347.71564 352.75 347.0594L354.375 347.34064Q354.125 348.45 353.40625 349.02814Q352.6875 349.59064 351.48438 349.59064Q350.125 349.59064 349.3125 348.73126Q348.5 347.8719 348.5 346.34064Q348.5 344.8094 349.3125 343.95Q350.125 343.09064 351.51562 343.09064Q352.65625 343.09064 353.32812 343.575Q354.0 344.0594 354.28125 345.0594ZM355.48438 346.2469Q355.48438 345.4344 355.89062 344.66876Q356.29688 343.8875 357.03125 343.4969Q357.76562 343.09064 358.6875 343.09064Q360.09375 343.09064 361.0 344.0125Q361.90625 344.91876 361.90625 346.325Q361.90625 347.73126 360.98438 348.66876Q360.07812 349.59064 358.70312 349.59064Q357.84375 349.59064 357.0625 349.2Q356.29688 348.8094 355.89062 348.075Q355.48438 347.325 355.48438 346.2469ZM357.17188 346.34064Q357.17188 347.2625 357.60938 347.7625Q358.04688 348.2469 358.6875 348.2469Q359.34375 348.2469 359.76562 347.7625Q360.20312 347.2625 360.20312 346.325Q360.20312 345.41876 359.76562 344.9344Q359.34375 344.4344 358.6875 344.4344Q358.04688 344.4344 357.60938 344.9344Q357.17188 345.41876 357.17188 346.34064Z" fill-rule="nonzero"/><path fill="#000000" d="M19.05 300.21564Q19.05 298.6844 19.3625 297.7625Q19.675 296.825 20.284374 296.325Q20.909374 295.825 21.846874 295.825Q22.534374 295.825 23.05 296.10626Q23.58125 296.3875 23.925 296.91876Q24.26875 297.4344 24.45625 298.1844Q24.64375 298.9344 24.64375 300.21564Q24.64375 301.73126 24.33125 302.65314Q24.034374 303.575 23.409374 304.09064Q22.8 304.59064 21.846874 304.59064Q20.6125 304.59064 19.89375 303.7Q19.05 302.6375 19.05 300.21564ZM20.128124 300.21564Q20.128124 302.325 20.628124 303.02814Q21.128124 303.73126 21.846874 303.73126Q22.58125 303.73126 23.065624 303.02814Q23.565624 302.325 23.565624 300.21564Q23.565624 298.09064 23.065624 297.40314Q22.58125 296.7 21.83125 296.7Q21.1125 296.7 20.675 297.3094Q20.128124 298.09064 20.128124 300.21564ZM27.675 299.79376Q27.01875 299.54376 26.690624 299.10626Q26.378124 298.65314 26.378124 298.04376Q26.378124 297.10626 27.05 296.46564Q27.7375 295.825 28.846874 295.825Q29.971874 295.825 30.659374 296.48126Q31.346874 297.1375 31.346874 298.075Q31.346874 298.66876 31.034374 299.10626Q30.721874 299.54376 30.08125 299.79376Q30.878124 300.04376 31.284374 300.6219Q31.690624 301.2 31.690624 301.9969Q31.690624 303.09064 30.909374 303.84064Q30.14375 304.59064 28.8625 304.59064Q27.596874 304.59064 26.815624 303.84064Q26.034374 303.09064 26.034374 301.96564Q26.034374 301.1219 26.45625 300.5594Q26.89375 299.9969 27.675 299.79376ZM27.45625 297.9969Q27.45625 298.60626 27.846874 298.9969Q28.253124 299.3875 28.878124 299.3875Q29.4875 299.3875 29.878124 299.0125Q30.26875 298.6219 30.26875 298.0594Q30.26875 297.48126 29.8625 297.09064Q29.45625 296.6844 28.8625 296.6844Q28.253124 296.6844 27.846874 297.075Q27.45625 297.46564 27.45625 297.9969ZM27.128124 301.96564Q27.128124 302.41876 27.33125 302.84064Q27.55 303.2625 27.971874 303.4969Q28.39375 303.73126 28.878124 303.73126Q29.628124 303.73126 30.1125 303.2469Q30.6125 302.7625 30.6125 302.0125Q30.6125 301.2469 30.1125 300.7469Q29.6125 300.2469 28.846874 300.2469Q28.096874 300.2469 27.6125 300.7469Q27.128124 301.23126 27.128124 301.96564ZM33.628124 299.4344L33.628124 298.23126L34.83125 298.23126L34.83125 299.4344L33.628124 299.4344ZM33.628124 304.45L33.628124 303.2469L34.83125 303.2469L34.83125 304.45L33.628124 304.45ZM36.05 300.21564Q36.05 298.6844 36.3625 297.7625Q36.675 296.825 37.284374 296.325Q37.909374 295.825 38.846874 295.825Q39.534374 295.825 40.05 296.10626Q40.58125 296.3875 40.925 296.91876Q41.26875 297.4344 41.45625 298.1844Q41.64375 298.9344 41.64375 300.21564Q41.64375 301.73126 41.33125 302.65314Q41.034374 303.575 40.409374 304.09064Q39.8 304.59064 38.846874 304.59064Q37.6125 304.59064 36.89375 303.7Q36.05 302.6375 36.05 300.21564ZM37.128124 300.21564Q37.128124 302.325 37.628124 303.02814Q38.128124 303.73126 38.846874 303.73126Q39.58125 303.73126 40.065624 303.02814Q40.565624 302.325 40.565624 300.21564Q40.565624 298.09064 40.065624 297.40314Q39.58125 296.7 38.83125 296.7Q38.1125 296.7 37.675 297.3094Q37.128124 298.09064 37.128124 300.21564ZM43.05 300.21564Q43.05 298.6844 43.3625 297.7625Q43.675 296.825 44.284374 296.325Q44.909374 295.825 45.846874 295.825Q46.534374 295.825 47.05 296.10626Q47.58125 296.3875 47.925 296.91876Q48.26875 297.4344 48.45625 298.1844Q48.64375 298.9344 48.64375 300.21564Q48.64375 301.73126 48.33125 302.65314Q48.034374 303.575 47.409374 304.09064Q46.8 304.59064 45.846874 304.59064Q44.6125 304.59064 43.89375 303.7Q43.05 302.6375 43.05 300.21564ZM44.128124 300.21564Q44.128124 302.325 44.628124 303.02814Q45.128124 303.73126 45.846874 303.73126Q46.58125 303.73126 47.065624 303.02814Q47.565624 302.325 47.565624 300.21564Q47.565624 298.09064 47.065624 297.40314Q46.58125 296.7 45.83125 296.7Q45.1125 296.7 44.675 297.3094Q44.128124 298.09064 44.128124 300.21564Z" fill-rule="nonzero"/><path fill="#000000" d="M23.01875 241.81667L21.971874 241.81667L21.971874 235.09792Q21.58125 235.45729 20.95625 235.83229Q20.346874 236.19167 19.8625 236.36354L19.8625 235.34792Q20.7375 234.92604 21.39375 234.34792Q22.065624 233.75417 22.346874 233.19167L23.01875 233.19167L23.01875 241.81667ZM26.05 237.58229Q26.05 236.05104 26.3625 235.12917Q26.675 234.19167 27.284374 233.69167Q27.909374 233.19167 28.846874 233.19167Q29.534374 233.19167 30.05 233.47292Q30.58125 233.75417 30.925 234.28542Q31.26875 234.80104 31.45625 235.55104Q31.64375 236.30104 31.64375 237.58229Q31.64375 239.09792 31.33125 240.01979Q31.034374 240.94167 30.409374 241.45729Q29.8 241.95729 28.846874 241.95729Q27.6125 241.95729 26.89375 241.06667Q26.05 240.00417 26.05 237.58229ZM27.128124 237.58229Q27.128124 239.69167 27.628124 240.39479Q28.128124 241.09792 28.846874 241.09792Q29.58125 241.09792 30.065624 240.39479Q30.565624 239.69167 30.565624 237.58229Q30.565624 235.45729 30.065624 234.76979Q29.58125 234.06667 28.83125 234.06667Q28.1125 234.06667 27.675 234.67604Q27.128124 235.45729 27.128124 237.58229ZM33.628124 236.80104L33.628124 235.59792L34.83125 235.59792L34.83125 236.80104L33.628124 236.80104ZM33.628124 241.81667L33.628124 240.61354L34.83125 240.61354L34.83125 241.81667L33.628124 241.81667ZM36.05 237.58229Q36.05 236.05104 36.3625 235.12917Q36.675 234.19167 37.284374 233.69167Q37.909374 233.19167 38.846874 233.19167Q39.534374 233.19167 40.05 233.47292Q40.58125 233.75417 40.925 234.28542Q41.26875 234.80104 41.45625 235.55104Q41.64375 236.30104 41.64375 237.58229Q41.64375 239.09792 41.33125 240.01979Q41.034374 240.94167 40.409374 241.45729Q39.8 241.95729 38.846874 241.95729Q37.6125 241.95729 36.89375 241.06667Q36.05 240.00417 36.05 237.58229ZM37.128124 237.58229Q37.128124 239.69167 37.628124 240.39479Q38.128124 241.09792 38.846874 241.09792Q39.58125 241.09792 40.065624 240.39479Q40.565624 239.69167 40.565624 237.58229Q40.565624 235.45729 40.065624 234.76979Q39.58125 234.06667 38.83125 234.06667Q38.1125 234.06667 37.675 234.67604Q37.128124 235.45729 37.128124 237.58229ZM43.05 237.58229Q43.05 236.05104 43.3625 235.12917Q43.675 234.19167 44.284374 233.69167Q44.909374 233.19167 45.846874 233.19167Q46.534374 233.19167 47.05 233.47292Q47.58125 233.75417 47.925 234.28542Q48.26875 234.80104 48.45625 235.55104Q48.64375 236.30104 48.64375 237.58229Q48.64375 239.09792 48.33125 240.01979Q48.034374 240.94167 47.409374 241.45729Q46.8 241.95729 45.846874 241.95729Q44.6125 241.95729 43.89375 241.06667Q43.05 240.00417 43.05 237.58229ZM44.128124 237.58229Q44.128124 239.69167 44.628124 240.39479Q45.128124 241.09792 45.846874 241.09792Q46.58125 241.09792 47.065624 240.39479Q47.565624 239.69167 47.565624 237.58229Q47.565624 235.45729 47.065624 234.76979Q46.58125 234.06667 45.83125 234.06667Q45.1125 234.06667 44.675 234.67604Q44.128124 235.45729 44.128124 237.58229Z" fill-rule="nonzero"/><path fill="#000000" d="M23.01875 179.18333L21.971874 179.18333L21.971874 172.46458Q21.58125 172.82396 20.95625 173.19896Q20.346874 173.55833 19.8625 173.73021L19.8625 172.71458Q20.7375 172.29271 21.39375 171.71458Q22.065624 171.12083 22.346874 170.55833L23.01875 170.55833L23.01875 179.18333ZM31.596874 178.16771L31.596874 179.18333L25.909374 179.18333Q25.909374 178.80833 26.034374 178.44896Q26.253124 177.87083 26.721874 177.30833Q27.20625 176.74583 28.1125 176.01146Q29.51875 174.85521 30.003124 174.18333Q30.503124 173.51146 30.503124 172.91771Q30.503124 172.29271 30.05 171.87083Q29.596874 171.43333 28.878124 171.43333Q28.1125 171.43333 27.659374 171.88646Q27.20625 172.33958 27.190624 173.15208L26.1125 173.04271Q26.221874 171.82396 26.940624 171.19896Q27.675 170.55833 28.909374 170.55833Q30.14375 170.55833 30.8625 171.24583Q31.58125 171.93333 31.58125 172.94896Q31.58125 173.46458 31.3625 173.96458Q31.159374 174.44896 30.659374 175.01146Q30.175 175.55833 29.05 176.51146Q28.096874 177.30833 27.815624 177.60521Q27.55 177.88646 27.378124 178.16771L31.596874 178.16771ZM33.628124 174.16771L33.628124 172.96458L34.83125 172.96458L34.83125 174.16771L33.628124 174.16771ZM33.628124 179.18333L33.628124 177.98021L34.83125 177.98021L34.83125 179.18333L33.628124 179.18333ZM36.05 174.94896Q36.05 173.41771 36.3625 172.49583Q36.675 171.55833 37.284374 171.05833Q37.909374 170.55833 38.846874 170.55833Q39.534374 170.55833 40.05 170.83958Q40.58125 171.12083 40.925 171.65208Q41.26875 172.16771 41.45625 172.91771Q41.64375 173.66771 41.64375 174.94896Q41.64375 176.46458 41.33125 177.38646Q41.034374 178.30833 40.409374 178.82396Q39.8 179.32396 38.846874 179.32396Q37.6125 179.32396 36.89375 178.43333Q36.05 177.37083 36.05 174.94896ZM37.128124 174.94896Q37.128124 177.05833 37.628124 177.76146Q38.128124 178.46458 38.846874 178.46458Q39.58125 178.46458 40.065624 177.76146Q40.565624 177.05833 40.565624 174.94896Q40.565624 172.82396 40.065624 172.13646Q39.58125 171.43333 38.83125 171.43333Q38.1125 171.43333 37.675 172.04271Q37.128124 172.82396 37.128124 174.94896ZM43.05 174.94896Q43.05 173.41771 43.3625 172.49583Q43.675 171.55833 44.284374 171.05833Q44.909374 170.55833 45.846874 170.55833Q46.534374 170.55833 47.05 170.83958Q47.58125 171.12083 47.925 171.65208Q48.26875 172.16771 48.45625 172.91771Q48.64375 173.66771 48.64375 174.94896Q48.64375 176.46458 48.33125 177.38646Q48.034374 178.30833 47.409374 178.82396Q46.8 179.32396 45.846874 179.32396Q44.6125 179.32396 43.89375 178.43333Q43.05 177.37083 43.05 174.94896ZM44.128124 174.94896Q44.128124 177.05833 44.628124 177.76146Q45.128124 178.46458 45.846874 178.46458Q46.58125 178.46458 47.065624 177.76146Q47.565624 177.05833 47.565624 174.94896Q47.565624 172.82396 47.065624 172.13646Q46.58125 171.43333 45.83125 171.43333Q45.1125 171.43333 44.675 172.04271Q44.128124 172.82396 44.128124 174.94896Z" fill-rule="nonzero"/><path fill="#000000" d="M23.01875 116.55L21.971874 116.55L21.971874 109.83125Q21.58125 110.19063 20.95625 110.56563Q20.346874 110.925 19.8625 111.09688L19.8625 110.08125Q20.7375 109.65938 21.39375 109.08125Q22.065624 108.4875 22.346874 107.925L23.01875 107.925L23.01875 116.55ZM29.425 116.55L29.425 114.4875L25.70625 114.4875L25.70625 113.51875L29.628124 107.95625L30.4875 107.95625L30.4875 113.51875L31.64375 113.51875L31.64375 114.4875L30.4875 114.4875L30.4875 116.55L29.425 116.55ZM29.425 113.51875L29.425 109.65938L26.7375 113.51875L29.425 113.51875ZM33.628124 111.53438L33.628124 110.33125L34.83125 110.33125L34.83125 111.53438L33.628124 111.53438ZM33.628124 116.55L33.628124 115.34688L34.83125 115.34688L34.83125 116.55L33.628124 116.55ZM36.05 112.31563Q36.05 110.78438 36.3625 109.8625Q36.675 108.925 37.284374 108.425Q37.909374 107.925 38.846874 107.925Q39.534374 107.925 40.05 108.20625Q40.58125 108.4875 40.925 109.01875Q41.26875 109.53438 41.45625 110.28438Q41.64375 111.03438 41.64375 112.31563Q41.64375 113.83125 41.33125 114.75313Q41.034374 115.675 40.409374 116.19063Q39.8 116.69063 38.846874 116.69063Q37.6125 116.69063 36.89375 115.8Q36.05 114.7375 36.05 112.31563ZM37.128124 112.31563Q37.128124 114.425 37.628124 115.12813Q38.128124 115.83125 38.846874 115.83125Q39.58125 115.83125 40.065624 115.12813Q40.565624 114.425 40.565624 112.31563Q40.565624 110.19063 40.065624 109.50313Q39.58125 108.8 38.83125 108.8Q38.1125 108.8 37.675 109.40938Q37.128124 110.19063 37.128124 112.31563ZM43.05 112.31563Q43.05 110.78438 43.3625 109.8625Q43.675 108.925 44.284374 108.425Q44.909374 107.925 45.846874 107.925Q46.534374 107.925 47.05 108.20625Q47.58125 108.4875 47.925 109.01875Q48.26875 109.53438 48.45625 110.28438Q48.64375 111.03438 48.64375 112.31563Q48.64375 113.83125 48.33125 114.75313Q48.034374 115.675 47.409374 116.19063Q46.8 116.69063 45.846874 116.69063Q44.6125 116.69063 43.89375 115.8Q43.05 114.7375 43.05 112.31563ZM44.128124 112.31563Q44.128124 114.425 44.628124 115.12813Q45.128124 115.83125 45.846874 115.83125Q46.58125 115.83125 47.065624 115.12813Q47.565624 114.425 47.565624 112.31563Q47.565624 110.19063 47.065624 109.50313Q46.58125 108.8 45.83125 108.8Q45.1125 108.8 44.675 109.40938Q44.128124 110.19063 44.128124 112.31563Z" fill-rule="nonzero"/><path fill="#000000" d="M23.01875 53.916668L21.971874 53.916668L21.971874 47.197918Q21.58125 47.557293 20.95625 47.932293Q20.346874 48.291668 19.8625 48.463543L19.8625 47.447918Q20.7375 47.026043 21.39375 46.447918Q22.065624 45.854168 22.346874 45.291668L23.01875 45.291668L23.01875 53.916668ZM31.51875 47.432293L30.471874 47.510418Q30.33125 46.885418 30.08125 46.604168Q29.64375 46.151043 29.01875 46.151043Q28.51875 46.151043 28.128124 46.432293Q27.64375 46.807293 27.346874 47.510418Q27.065624 48.197918 27.05 49.479168Q27.425 48.901043 27.971874 48.619793Q28.534374 48.338543 29.14375 48.338543Q30.190624 48.338543 30.925 49.119793Q31.675 49.901043 31.675 51.119793Q31.675 51.932293 31.315624 52.635418Q30.971874 53.322918 30.3625 53.697918Q29.753124 54.057293 28.9875 54.057293Q27.659374 54.057293 26.83125 53.088543Q26.003124 52.119793 26.003124 49.901043Q26.003124 47.401043 26.925 46.276043Q27.721874 45.291668 29.08125 45.291668Q30.096874 45.291668 30.7375 45.869793Q31.39375 46.432293 31.51875 47.432293ZM27.221874 51.135418Q27.221874 51.682293 27.440624 52.182293Q27.675 52.666668 28.08125 52.932293Q28.503124 53.197918 28.971874 53.197918Q29.628124 53.197918 30.1125 52.666668Q30.596874 52.119793 30.596874 51.197918Q30.596874 50.307293 30.1125 49.791668Q29.64375 49.276043 28.925 49.276043Q28.20625 49.276043 27.70625 49.791668Q27.221874 50.307293 27.221874 51.135418ZM33.628124 48.901043L33.628124 47.697918L34.83125 47.697918L34.83125 48.901043L33.628124 48.901043ZM33.628124 53.916668L33.628124 52.713543L34.83125 52.713543L34.83125 53.916668L33.628124 53.916668ZM36.05 49.682293Q36.05 48.151043 36.3625 47.229168Q36.675 46.291668 37.284374 45.791668Q37.909374 45.291668 38.846874 45.291668Q39.534374 45.291668 40.05 45.572918Q40.58125 45.854168 40.925 46.385418Q41.26875 46.901043 41.45625 47.651043Q41.64375 48.401043 41.64375 49.682293Q41.64375 51.197918 41.33125 52.119793Q41.034374 53.041668 40.409374 53.557293Q39.8 54.057293 38.846874 54.057293Q37.6125 54.057293 36.89375 53.166668Q36.05 52.104168 36.05 49.682293ZM37.128124 49.682293Q37.128124 51.791668 37.628124 52.494793Q38.128124 53.197918 38.846874 53.197918Q39.58125 53.197918 40.065624 52.494793Q40.565624 51.791668 40.565624 49.682293Q40.565624 47.557293 40.065624 46.869793Q39.58125 46.166668 38.83125 46.166668Q38.1125 46.166668 37.675 46.776043Q37.128124 47.557293 37.128124 49.682293ZM43.05 49.682293Q43.05 48.151043 43.3625 47.229168Q43.675 46.291668 44.284374 45.791668Q44.909374 45.291668 45.846874 45.291668Q46.534374 45.291668 47.05 45.572918Q47.58125 45.854168 47.925 46.385418Q48.26875 46.901043 48.45625 47.651043Q48.64375 48.401043 48.64375 49.682293Q48.64375 51.197918 48.33125 52.119793Q48.034374 53.041668 47.409374 53.557293Q46.8 54.057293 45.846874 54.057293Q44.6125 54.057293 43.89375 53.166668Q43.05 52.104168 43.05 49.682293ZM44.128124 49.682293Q44.128124 51.791668 44.628124 52.494793Q45.128124 53.197918 45.846874 53.197918Q46.58125 53.197918 47.065624 52.494793Q47.565624 51.791668 47.565624 49.682293Q47.565624 47.557293 47.065624 46.869793Q46.58125 46.166668 45.83125 46.166668Q45.1125 46.166668 44.675 46.776043Q44.128124 47.557293 44.128124 49.682293Z" fill-rule="nonzero"/><path fill="#000000" d="M86.99963 314.6844L88.06213 314.59064Q88.14026 315.2469 88.42151 315.65314Q88.70276 316.0594 89.28088 316.325Q89.87463 316.575 90.60901 316.575Q91.24963 316.575 91.74963 316.3875Q92.24963 316.1844 92.48401 315.85626Q92.73401 315.5125 92.73401 315.1219Q92.73401 314.71564 92.49963 314.41876Q92.26526 314.10626 91.73401 313.90314Q91.37463 313.7625 90.18713 313.48126Q89.01526 313.2 88.54651 312.95Q87.92151 312.6219 87.62463 312.15314Q87.32776 311.66876 87.32776 311.075Q87.32776 310.4344 87.68713 309.8719Q88.06213 309.29376 88.76526 309.0125Q89.48401 308.71564 90.34338 308.71564Q91.29651 308.71564 92.03088 309.02814Q92.76526 309.325 93.15588 309.9344Q93.54651 310.52814 93.57776 311.27814L92.48401 311.35626Q92.39026 310.54376 91.87463 310.1375Q91.37463 309.71564 90.39026 309.71564Q89.35901 309.71564 88.89026 310.09064Q88.42151 310.46564 88.42151 310.9969Q88.42151 311.46564 88.74963 311.7625Q89.07776 312.0594 90.45276 312.3719Q91.84338 312.6844 92.35901 312.91876Q93.10901 313.27814 93.46838 313.8094Q93.82776 314.325 93.82776 315.02814Q93.82776 315.71564 93.43713 316.325Q93.04651 316.91876 92.31213 317.2625Q91.57776 317.59064 90.65588 317.59064Q89.48401 317.59064 88.68713 317.2625Q87.90588 316.91876 87.45276 316.23126Q87.01526 315.54376 86.99963 314.6844ZM99.49963 315.45L100.59338 315.575Q100.34338 316.52814 99.64026 317.0594Q98.93713 317.59064 97.85901 317.59064Q96.49963 317.59064 95.68713 316.7469Q94.89026 315.90314 94.89026 314.3875Q94.89026 312.825 95.70276 311.96564Q96.51526 311.09064 97.79651 311.09064Q99.04651 311.09064 99.82776 311.9344Q100.62463 312.77814 100.62463 314.325Q100.62463 314.41876 100.62463 314.60626L95.98401 314.60626Q96.04651 315.6375 96.56213 316.1844Q97.07776 316.71564 97.85901 316.71564Q98.43713 316.71564 98.84338 316.41876Q99.26526 316.10626 99.49963 315.45ZM96.04651 313.7469L99.51526 313.7469Q99.45276 312.95 99.12463 312.5594Q98.60901 311.95 97.81213 311.95Q97.07776 311.95 96.57776 312.4344Q96.09338 312.91876 96.04651 313.7469ZM102.04651 317.96564L103.07776 318.1219Q103.14026 318.59064 103.43713 318.8094Q103.82776 319.10626 104.49963 319.10626Q105.23401 319.10626 105.62463 318.8094Q106.03088 318.5125 106.17151 317.9969Q106.26526 317.66876 106.24963 316.6375Q105.56213 317.45 104.53088 317.45Q103.24963 317.45 102.54651 316.52814Q101.84338 315.59064 101.84338 314.3094Q101.84338 313.41876 102.15588 312.66876Q102.48401 311.90314 103.09338 311.4969Q103.70276 311.09064 104.53088 311.09064Q105.64026 311.09064 106.35901 311.98126L106.35901 311.23126L107.32776 311.23126L107.32776 316.60626Q107.32776 318.0594 107.03088 318.66876Q106.73401 319.27814 106.09338 319.6219Q105.45276 319.98126 104.51526 319.98126Q103.40588 319.98126 102.71838 319.48126Q102.03088 318.98126 102.04651 317.96564ZM102.92151 314.23126Q102.92151 315.45 103.40588 316.0125Q103.89026 316.575 104.62463 316.575Q105.35901 316.575 105.84338 316.0125Q106.34338 315.45 106.34338 314.2625Q106.34338 313.1219 105.82776 312.54376Q105.32776 311.96564 104.60901 311.96564Q103.90588 311.96564 103.40588 312.54376Q102.92151 313.10626 102.92151 314.23126ZM113.32776 317.45L113.32776 316.52814Q112.59338 317.59064 111.34338 317.59064Q110.79651 317.59064 110.31213 317.3875Q109.84338 317.16876 109.60901 316.85626Q109.37463 316.52814 109.28088 316.0594Q109.21838 315.7625 109.21838 315.075L109.21838 311.23126L110.28088 311.23126L110.28088 314.6844Q110.28088 315.4969 110.34338 315.79376Q110.43713 316.2 110.74963 316.45Q111.07776 316.6844 111.56213 316.6844Q112.03088 316.6844 112.43713 316.45Q112.85901 316.2 113.03088 315.77814Q113.21838 315.35626 113.21838 314.5594L113.21838 311.23126L114.26526 311.23126L114.26526 317.45L113.32776 317.45ZM116.24963 317.45L116.24963 311.23126L117.18713 311.23126L117.18713 312.10626Q117.87463 311.09064 119.17151 311.09064Q119.73401 311.09064 120.20276 311.29376Q120.68713 311.4969 120.92151 311.825Q121.15588 312.15314 121.24963 312.59064Q121.29651 312.8875 121.29651 313.6219L121.29651 317.45L120.24963 317.45L120.24963 313.66876Q120.24963 313.0125 120.12463 312.7Q119.99963 312.3875 119.68713 312.2Q119.37463 311.9969 118.95276 311.9969Q118.28088 311.9969 117.78088 312.4344Q117.29651 312.85626 117.29651 314.04376L117.29651 317.45L116.24963 317.45ZM127.28088 317.45L127.28088 316.66876Q126.68713 317.59064 125.54651 317.59064Q124.79651 317.59064 124.17151 317.1844Q123.54651 316.7625 123.20276 316.02814Q122.85901 315.29376 122.85901 314.34064Q122.85901 313.41876 123.17151 312.65314Q123.48401 311.8875 124.10901 311.4969Q124.73401 311.09064 125.49963 311.09064Q126.06213 311.09064 126.49963 311.325Q126.93713 311.5594 127.21838 311.9344L127.21838 308.85626L128.26526 308.85626L128.26526 317.45L127.28088 317.45ZM123.95276 314.34064Q123.95276 315.54376 124.45276 316.1375Q124.95276 316.71564 125.64026 316.71564Q126.32776 316.71564 126.81213 316.15314Q127.29651 315.59064 127.29651 314.4344Q127.29651 313.15314 126.79651 312.5594Q126.31213 311.96564 125.59338 311.96564Q124.89026 311.96564 124.42151 312.54376Q123.95276 313.10626 123.95276 314.34064ZM134.31213 316.6844Q133.71838 317.1844 133.17151 317.3875Q132.64026 317.59064 132.01526 317.59064Q130.98401 317.59064 130.43713 317.09064Q129.89026 316.59064 129.89026 315.8094Q129.89026 315.35626 130.09338 314.98126Q130.29651 314.59064 130.64026 314.3719Q130.98401 314.1375 131.40588 314.02814Q131.70276 313.9344 132.34338 313.85626Q133.60901 313.71564 134.21838 313.4969Q134.21838 313.27814 134.21838 313.23126Q134.21838 312.575 133.92151 312.3094Q133.51526 311.96564 132.71838 311.96564Q131.98401 311.96564 131.62463 312.23126Q131.26526 312.48126 131.09338 313.1375L130.06213 312.9969Q130.20276 312.34064 130.53088 311.9344Q130.85901 311.52814 131.46838 311.3094Q132.07776 311.09064 132.87463 311.09064Q133.67151 311.09064 134.17151 311.27814Q134.67151 311.46564 134.90588 311.7469Q135.14026 312.02814 135.23401 312.46564Q135.28088 312.73126 135.28088 313.4344L135.28088 314.84064Q135.28088 316.3094 135.34338 316.7Q135.42151 317.09064 135.62463 317.45L134.51526 317.45Q134.35901 317.1219 134.31213 316.6844ZM134.21838 314.325Q133.64026 314.5594 132.49963 314.73126Q131.84338 314.825 131.57776 314.95Q131.31213 315.0594 131.15588 315.27814Q131.01526 315.4969 131.01526 315.77814Q131.01526 316.2 131.32776 316.48126Q131.65588 316.7625 132.26526 316.7625Q132.87463 316.7625 133.34338 316.4969Q133.82776 316.23126 134.04651 315.7625Q134.21838 315.40314 134.21838 314.71564L134.21838 314.325Z" fill-rule="nonzero"/><path fill="#000000" d="M181.88103 317.45L181.88103 309.8719L179.0529 309.8719L179.0529 308.85626L185.8654 308.85626L185.8654 309.8719L183.02165 309.8719L183.02165 317.45L181.88103 317.45ZM190.81853 315.45L191.91228 315.575Q191.66228 316.52814 190.95915 317.0594Q190.25603 317.59064 189.1779 317.59064Q187.81853 317.59064 187.00603 316.7469Q186.20915 315.90314 186.20915 314.3875Q186.20915 312.825 187.02165 311.96564Q187.83415 311.09064 189.1154 311.09064Q190.3654 311.09064 191.14665 311.9344Q191.94353 312.77814 191.94353 314.325Q191.94353 314.41876 191.94353 314.60626L187.3029 314.60626Q187.3654 315.6375 187.88103 316.1844Q188.39665 316.71564 189.1779 316.71564Q189.75603 316.71564 190.16228 316.41876Q190.58415 316.10626 190.81853 315.45ZM187.3654 313.7469L190.83415 313.7469Q190.77165 312.95 190.44353 312.5594Q189.9279 311.95 189.13103 311.95Q188.39665 311.95 187.89665 312.4344Q187.41228 312.91876 187.3654 313.7469ZM193.5529 317.45L193.5529 311.23126L194.50603 311.23126L194.50603 312.16876Q194.8654 311.5125 195.16228 311.3094Q195.47478 311.09064 195.84978 311.09064Q196.38103 311.09064 196.9279 311.41876L196.56853 312.40314Q196.1779 312.16876 195.8029 312.16876Q195.44353 312.16876 195.16228 312.3875Q194.89665 312.59064 194.78728 312.96564Q194.59978 313.52814 194.59978 314.1844L194.59978 317.45L193.5529 317.45ZM201.63103 315.16876L202.66228 315.3094Q202.4904 316.3719 201.78728 316.98126Q201.08415 317.59064 200.06853 317.59064Q198.78728 317.59064 198.00603 316.7625Q197.2404 315.91876 197.2404 314.35626Q197.2404 313.35626 197.56853 312.60626Q197.91228 311.84064 198.58415 311.46564Q199.27165 311.09064 200.08415 311.09064Q201.08415 311.09064 201.72478 311.60626Q202.38103 312.10626 202.56853 313.0594L201.53728 313.21564Q201.39665 312.59064 201.02165 312.27814Q200.64665 311.95 200.1154 311.95Q199.31853 311.95 198.81853 312.52814Q198.31853 313.09064 198.31853 314.325Q198.31853 315.59064 198.8029 316.15314Q199.28728 316.71564 200.0529 316.71564Q200.6779 316.71564 201.08415 316.34064Q201.50603 315.96564 201.63103 315.16876ZM199.03728 318.35626L199.34978 317.3094L200.13103 317.3094L199.9279 317.95Q200.4279 317.9969 200.6779 318.2469Q200.94353 318.4969 200.94353 318.8094Q200.94353 319.2469 200.52165 319.575Q200.09978 319.91876 199.2404 319.91876Q198.75603 319.91876 198.39665 319.84064L198.45915 319.16876Q198.83415 319.1844 199.02165 319.1844Q199.56853 319.1844 199.78728 319.02814Q199.95915 318.91876 199.95915 318.7469Q199.95915 318.6375 199.88103 318.5594Q199.81853 318.48126 199.63103 318.41876Q199.45915 318.35626 199.03728 318.35626ZM207.63103 316.6844Q207.03728 317.1844 206.4904 317.3875Q205.95915 317.59064 205.33415 317.59064Q204.3029 317.59064 203.75603 317.09064Q203.20915 316.59064 203.20915 315.8094Q203.20915 315.35626 203.41228 314.98126Q203.6154 314.59064 203.95915 314.3719Q204.3029 314.1375 204.72478 314.02814Q205.02165 313.9344 205.66228 313.85626Q206.9279 313.71564 207.53728 313.4969Q207.53728 313.27814 207.53728 313.23126Q207.53728 312.575 207.2404 312.3094Q206.83415 311.96564 206.03728 311.96564Q205.3029 311.96564 204.94353 312.23126Q204.58415 312.48126 204.41228 313.1375L203.38103 312.9969Q203.52165 312.34064 203.84978 311.9344Q204.1779 311.52814 204.78728 311.3094Q205.39665 311.09064 206.19353 311.09064Q206.9904 311.09064 207.4904 311.27814Q207.9904 311.46564 208.22478 311.7469Q208.45915 312.02814 208.5529 312.46564Q208.59978 312.73126 208.59978 313.4344L208.59978 314.84064Q208.59978 316.3094 208.66228 316.7Q208.7404 317.09064 208.94353 317.45L207.83415 317.45Q207.6779 317.1219 207.63103 316.6844ZM207.53728 314.325Q206.95915 314.5594 205.81853 314.73126Q205.16228 314.825 204.89665 314.95Q204.63103 315.0594 204.47478 315.27814Q204.33415 315.4969 204.33415 315.77814Q204.33415 316.2 204.64665 316.48126Q204.97478 316.7625 205.58415 316.7625Q206.19353 316.7625 206.66228 316.4969Q207.14665 316.23126 207.3654 315.7625Q207.53728 315.40314 207.53728 314.71564L207.53728 314.325Z" fill-rule="nonzero"/><path fill="#000000" d="M266.02805 316.52814Q266.82492 317.075 267.48117 317.325L267.15305 318.1219Q266.23117 317.77814 265.3093 317.0594Q264.35617 317.59064 263.19992 317.59064Q262.02805 317.59064 261.07492 317.02814Q260.13742 316.46564 259.6218 315.45Q259.10617 314.4344 259.10617 313.15314Q259.10617 311.8875 259.6218 310.84064Q260.13742 309.79376 261.09055 309.2469Q262.04367 308.7 263.21555 308.7Q264.40305 308.7 265.35617 309.27814Q266.32492 309.84064 266.82492 310.85626Q267.32492 311.8719 267.32492 313.15314Q267.32492 314.21564 266.9968 315.0594Q266.6843 315.90314 266.02805 316.52814ZM263.52805 315.075Q264.51242 315.35626 265.15305 315.90314Q266.15305 314.98126 266.15305 313.15314Q266.15305 312.10626 265.79367 311.325Q265.4343 310.54376 264.7468 310.1219Q264.07492 309.6844 263.23117 309.6844Q261.94992 309.6844 261.10617 310.5594Q260.27805 311.41876 260.27805 313.15314Q260.27805 314.825 261.10617 315.73126Q261.9343 316.6219 263.23117 316.6219Q263.84055 316.6219 264.3718 316.3875Q263.84055 316.04376 263.2468 315.90314L263.52805 315.075ZM272.46555 317.45L272.46555 316.52814Q271.73117 317.59064 270.48117 317.59064Q269.9343 317.59064 269.44992 317.3875Q268.98117 317.16876 268.7468 316.85626Q268.51242 316.52814 268.41867 316.0594Q268.35617 315.7625 268.35617 315.075L268.35617 311.23126L269.41867 311.23126L269.41867 314.6844Q269.41867 315.4969 269.48117 315.79376Q269.57492 316.2 269.88742 316.45Q270.21555 316.6844 270.69992 316.6844Q271.16867 316.6844 271.57492 316.45Q271.9968 316.2 272.16867 315.77814Q272.35617 315.35626 272.35617 314.5594L272.35617 311.23126L273.40305 311.23126L273.40305 317.45L272.46555 317.45ZM279.44992 316.6844Q278.85617 317.1844 278.3093 317.3875Q277.77805 317.59064 277.15305 317.59064Q276.1218 317.59064 275.57492 317.09064Q275.02805 316.59064 275.02805 315.8094Q275.02805 315.35626 275.23117 314.98126Q275.4343 314.59064 275.77805 314.3719Q276.1218 314.1375 276.54367 314.02814Q276.84055 313.9344 277.48117 313.85626Q278.7468 313.71564 279.35617 313.4969Q279.35617 313.27814 279.35617 313.23126Q279.35617 312.575 279.0593 312.3094Q278.65305 311.96564 277.85617 311.96564Q277.1218 311.96564 276.76242 312.23126Q276.40305 312.48126 276.23117 313.1375L275.19992 312.9969Q275.34055 312.34064 275.66867 311.9344Q275.9968 311.52814 276.60617 311.3094Q277.21555 311.09064 278.01242 311.09064Q278.8093 311.09064 279.3093 311.27814Q279.8093 311.46564 280.04367 311.7469Q280.27805 312.02814 280.3718 312.46564Q280.41867 312.73126 280.41867 313.4344L280.41867 314.84064Q280.41867 316.3094 280.48117 316.7Q280.5593 317.09064 280.76242 317.45L279.65305 317.45Q279.4968 317.1219 279.44992 316.6844ZM279.35617 314.325Q278.77805 314.5594 277.63742 314.73126Q276.98117 314.825 276.71555 314.95Q276.44992 315.0594 276.29367 315.27814Q276.15305 315.4969 276.15305 315.77814Q276.15305 316.2 276.46555 316.48126Q276.79367 316.7625 277.40305 316.7625Q278.01242 316.7625 278.48117 316.4969Q278.96555 316.23126 279.1843 315.7625Q279.35617 315.40314 279.35617 314.71564L279.35617 314.325ZM282.3718 317.45L282.3718 311.23126L283.32492 311.23126L283.32492 312.16876Q283.6843 311.5125 283.98117 311.3094Q284.29367 311.09064 284.66867 311.09064Q285.19992 311.09064 285.7468 311.41876L285.38742 312.40314Q284.9968 312.16876 284.6218 312.16876Q284.26242 312.16876 283.98117 312.3875Q283.71555 312.59064 283.60617 312.96564Q283.41867 313.52814 283.41867 314.1844L283.41867 317.45L282.3718 317.45ZM288.6843 316.5125L288.84055 317.4344Q288.38742 317.52814 288.04367 317.52814Q287.46555 317.52814 287.15305 317.35626Q286.84055 317.16876 286.69992 316.8719Q286.57492 316.575 286.57492 315.6219L286.57492 312.04376L285.8093 312.04376L285.8093 311.23126L286.57492 311.23126L286.57492 309.6844L287.6218 309.0594L287.6218 311.23126L288.6843 311.23126L288.6843 312.04376L287.6218 312.04376L287.6218 315.6844Q287.6218 316.1375 287.66867 316.2625Q287.73117 316.3875 287.85617 316.46564Q287.98117 316.54376 288.21555 316.54376Q288.40305 316.54376 288.6843 316.5125ZM293.44992 316.6844Q292.85617 317.1844 292.3093 317.3875Q291.77805 317.59064 291.15305 317.59064Q290.1218 317.59064 289.57492 317.09064Q289.02805 316.59064 289.02805 315.8094Q289.02805 315.35626 289.23117 314.98126Q289.4343 314.59064 289.77805 314.3719Q290.1218 314.1375 290.54367 314.02814Q290.84055 313.9344 291.48117 313.85626Q292.7468 313.71564 293.35617 313.4969Q293.35617 313.27814 293.35617 313.23126Q293.35617 312.575 293.0593 312.3094Q292.65305 311.96564 291.85617 311.96564Q291.1218 311.96564 290.76242 312.23126Q290.40305 312.48126 290.23117 313.1375L289.19992 312.9969Q289.34055 312.34064 289.66867 311.9344Q289.9968 311.52814 290.60617 311.3094Q291.21555 311.09064 292.01242 311.09064Q292.8093 311.09064 293.3093 311.27814Q293.8093 311.46564 294.04367 311.7469Q294.27805 312.02814 294.3718 312.46564Q294.41867 312.73126 294.41867 313.4344L294.41867 314.84064Q294.41867 316.3094 294.48117 316.7Q294.5593 317.09064 294.76242 317.45L293.65305 317.45Q293.4968 317.1219 293.44992 316.6844ZM293.35617 314.325Q292.77805 314.5594 291.63742 314.73126Q290.98117 314.825 290.71555 314.95Q290.44992 315.0594 290.29367 315.27814Q290.15305 315.4969 290.15305 315.77814Q290.15305 316.2 290.46555 316.48126Q290.79367 316.7625 291.40305 316.7625Q292.01242 316.7625 292.48117 316.4969Q292.96555 316.23126 293.1843 315.7625Q293.35617 315.40314 293.35617 314.71564L293.35617 314.325Z" fill-rule="nonzero"/><path fill="#000000" d="M349.34695 316.52814Q350.14383 317.075 350.80008 317.325L350.47195 318.1219Q349.55008 317.77814 348.6282 317.0594Q347.67508 317.59064 346.51883 317.59064Q345.34695 317.59064 344.39383 317.02814Q343.45633 316.46564 342.9407 315.45Q342.42508 314.4344 342.42508 313.15314Q342.42508 311.8875 342.9407 310.84064Q343.45633 309.79376 344.40945 309.2469Q345.36258 308.7 346.53445 308.7Q347.72195 308.7 348.67508 309.27814Q349.64383 309.84064 350.14383 310.85626Q350.64383 311.8719 350.64383 313.15314Q350.64383 314.21564 350.3157 315.0594Q350.0032 315.90314 349.34695 316.52814ZM346.84695 315.075Q347.83133 315.35626 348.47195 315.90314Q349.47195 314.98126 349.47195 313.15314Q349.47195 312.10626 349.11258 311.325Q348.7532 310.54376 348.0657 310.1219Q347.39383 309.6844 346.55008 309.6844Q345.26883 309.6844 344.42508 310.5594Q343.59695 311.41876 343.59695 313.15314Q343.59695 314.825 344.42508 315.73126Q345.2532 316.6219 346.55008 316.6219Q347.15945 316.6219 347.6907 316.3875Q347.15945 316.04376 346.5657 315.90314L346.84695 315.075ZM355.78445 317.45L355.78445 316.52814Q355.05008 317.59064 353.80008 317.59064Q353.2532 317.59064 352.76883 317.3875Q352.30008 317.16876 352.0657 316.85626Q351.83133 316.52814 351.73758 316.0594Q351.67508 315.7625 351.67508 315.075L351.67508 311.23126L352.73758 311.23126L352.73758 314.6844Q352.73758 315.4969 352.80008 315.79376Q352.89383 316.2 353.20633 316.45Q353.53445 316.6844 354.01883 316.6844Q354.48758 316.6844 354.89383 316.45Q355.3157 316.2 355.48758 315.77814Q355.67508 315.35626 355.67508 314.5594L355.67508 311.23126L356.72195 311.23126L356.72195 317.45L355.78445 317.45ZM358.70633 310.075L358.70633 308.85626L359.76883 308.85626L359.76883 310.075L358.70633 310.075ZM358.70633 317.45L358.70633 311.23126L359.76883 311.23126L359.76883 317.45L358.70633 317.45ZM361.70633 317.45L361.70633 311.23126L362.64383 311.23126L362.64383 312.10626Q363.33133 311.09064 364.6282 311.09064Q365.1907 311.09064 365.65945 311.29376Q366.14383 311.4969 366.3782 311.825Q366.61258 312.15314 366.70633 312.59064Q366.7532 312.8875 366.7532 313.6219L366.7532 317.45L365.70633 317.45L365.70633 313.66876Q365.70633 313.0125 365.58133 312.7Q365.45633 312.3875 365.14383 312.2Q364.83133 311.9969 364.40945 311.9969Q363.73758 311.9969 363.23758 312.4344Q362.7532 312.85626 362.7532 314.04376L362.7532 317.45L361.70633 317.45ZM371.0032 316.5125L371.15945 317.4344Q370.70633 317.52814 370.36258 317.52814Q369.78445 317.52814 369.47195 317.35626Q369.15945 317.16876 369.01883 316.8719Q368.89383 316.575 368.89383 315.6219L368.89383 312.04376L368.1282 312.04376L368.1282 311.23126L368.89383 311.23126L368.89383 309.6844L369.9407 309.0594L369.9407 311.23126L371.0032 311.23126L371.0032 312.04376L369.9407 312.04376L369.9407 315.6844Q369.9407 316.1375 369.98758 316.2625Q370.05008 316.3875 370.17508 316.46564Q370.30008 316.54376 370.53445 316.54376Q370.72195 316.54376 371.0032 316.5125ZM375.76883 316.6844Q375.17508 317.1844 374.6282 317.3875Q374.09695 317.59064 373.47195 317.59064Q372.4407 317.59064 371.89383 317.09064Q371.34695 316.59064 371.34695 315.8094Q371.34695 315.35626 371.55008 314.98126Q371.7532 314.59064 372.09695 314.3719Q372.4407 314.1375 372.86258 314.02814Q373.15945 313.9344 373.80008 313.85626Q375.0657 313.71564 375.67508 313.4969Q375.67508 313.27814 375.67508 313.23126Q375.67508 312.575 375.3782 312.3094Q374.97195 311.96564 374.17508 311.96564Q373.4407 311.96564 373.08133 312.23126Q372.72195 312.48126 372.55008 313.1375L371.51883 312.9969Q371.65945 312.34064 371.98758 311.9344Q372.3157 311.52814 372.92508 311.3094Q373.53445 311.09064 374.33133 311.09064Q375.1282 311.09064 375.6282 311.27814Q376.1282 311.46564 376.36258 311.7469Q376.59695 312.02814 376.6907 312.46564Q376.73758 312.73126 376.73758 313.4344L376.73758 314.84064Q376.73758 316.3094 376.80008 316.7Q376.8782 317.09064 377.08133 317.45L375.97195 317.45Q375.8157 317.1219 375.76883 316.6844ZM375.67508 314.325Q375.09695 314.5594 373.95633 314.73126Q373.30008 314.825 373.03445 314.95Q372.76883 315.0594 372.61258 315.27814Q372.47195 315.4969 372.47195 315.77814Q372.47195 316.2 372.78445 316.48126Q373.11258 316.7625 373.72195 316.7625Q374.33133 316.7625 374.80008 316.4969Q375.28445 316.23126 375.5032 315.7625Q375.67508 315.40314 375.67508 314.71564L375.67508 314.325Z" fill-rule="nonzero"/><path fill="#000000" d="M427.7752 314.6844L428.8377 314.59064Q428.91583 315.2469 429.19708 315.65314Q429.47833 316.0594 430.05646 316.325Q430.6502 316.575 431.38458 316.575Q432.0252 316.575 432.5252 316.3875Q433.0252 316.1844 433.25958 315.85626Q433.50958 315.5125 433.50958 315.1219Q433.50958 314.71564 433.2752 314.41876Q433.04083 314.10626 432.50958 313.90314Q432.1502 313.7625 430.9627 313.48126Q429.79083 313.2 429.32208 312.95Q428.69708 312.6219 428.4002 312.15314Q428.10333 311.66876 428.10333 311.075Q428.10333 310.4344 428.4627 309.8719Q428.8377 309.29376 429.54083 309.0125Q430.25958 308.71564 431.11896 308.71564Q432.07208 308.71564 432.80646 309.02814Q433.54083 309.325 433.93146 309.9344Q434.32208 310.52814 434.35333 311.27814L433.25958 311.35626Q433.16583 310.54376 432.6502 310.1375Q432.1502 309.71564 431.16583 309.71564Q430.13458 309.71564 429.66583 310.09064Q429.19708 310.46564 429.19708 310.9969Q429.19708 311.46564 429.5252 311.7625Q429.85333 312.0594 431.22833 312.3719Q432.61896 312.6844 433.13458 312.91876Q433.88458 313.27814 434.24396 313.8094Q434.60333 314.325 434.60333 315.02814Q434.60333 315.71564 434.2127 316.325Q433.82208 316.91876 433.0877 317.2625Q432.35333 317.59064 431.43146 317.59064Q430.25958 317.59064 429.4627 317.2625Q428.68146 316.91876 428.22833 316.23126Q427.79083 315.54376 427.7752 314.6844ZM440.2752 315.45L441.36896 315.575Q441.11896 316.52814 440.41583 317.0594Q439.7127 317.59064 438.63458 317.59064Q437.2752 317.59064 436.4627 316.7469Q435.66583 315.90314 435.66583 314.3875Q435.66583 312.825 436.47833 311.96564Q437.29083 311.09064 438.57208 311.09064Q439.82208 311.09064 440.60333 311.9344Q441.4002 312.77814 441.4002 314.325Q441.4002 314.41876 441.4002 314.60626L436.75958 314.60626Q436.82208 315.6375 437.3377 316.1844Q437.85333 316.71564 438.63458 316.71564Q439.2127 316.71564 439.61896 316.41876Q440.04083 316.10626 440.2752 315.45ZM436.82208 313.7469L440.29083 313.7469Q440.22833 312.95 439.9002 312.5594Q439.38458 311.95 438.5877 311.95Q437.85333 311.95 437.35333 312.4344Q436.86896 312.91876 436.82208 313.7469ZM442.32208 317.45L444.5877 314.21564L442.49396 311.23126L443.80646 311.23126L444.75958 312.6844Q445.0252 313.10626 445.19708 313.3875Q445.44708 312.9969 445.66583 312.7L446.7127 311.23126L447.97833 311.23126L445.82208 314.15314L448.13458 317.45L446.85333 317.45L445.57208 315.5125L445.22833 314.9969L443.5877 317.45L442.32208 317.45ZM451.32208 316.5125L451.47833 317.4344Q451.0252 317.52814 450.68146 317.52814Q450.10333 317.52814 449.79083 317.35626Q449.47833 317.16876 449.3377 316.8719Q449.2127 316.575 449.2127 315.6219L449.2127 312.04376L448.44708 312.04376L448.44708 311.23126L449.2127 311.23126L449.2127 309.6844L450.25958 309.0594L450.25958 311.23126L451.32208 311.23126L451.32208 312.04376L450.25958 312.04376L450.25958 315.6844Q450.25958 316.1375 450.30646 316.2625Q450.36896 316.3875 450.49396 316.46564Q450.61896 316.54376 450.85333 316.54376Q451.04083 316.54376 451.32208 316.5125ZM456.0877 316.6844Q455.49396 317.1844 454.94708 317.3875Q454.41583 317.59064 453.79083 317.59064Q452.75958 317.59064 452.2127 317.09064Q451.66583 316.59064 451.66583 315.8094Q451.66583 315.35626 451.86896 314.98126Q452.07208 314.59064 452.41583 314.3719Q452.75958 314.1375 453.18146 314.02814Q453.47833 313.9344 454.11896 313.85626Q455.38458 313.71564 455.99396 313.4969Q455.99396 313.27814 455.99396 313.23126Q455.99396 312.575 455.69708 312.3094Q455.29083 311.96564 454.49396 311.96564Q453.75958 311.96564 453.4002 312.23126Q453.04083 312.48126 452.86896 313.1375L451.8377 312.9969Q451.97833 312.34064 452.30646 311.9344Q452.63458 311.52814 453.24396 311.3094Q453.85333 311.09064 454.6502 311.09064Q455.44708 311.09064 455.94708 311.27814Q456.44708 311.46564 456.68146 311.7469Q456.91583 312.02814 457.00958 312.46564Q457.05646 312.73126 457.05646 313.4344L457.05646 314.84064Q457.05646 316.3094 457.11896 316.7Q457.19708 317.09064 457.4002 317.45L456.29083 317.45Q456.13458 317.1219 456.0877 316.6844ZM455.99396 314.325Q455.41583 314.5594 454.2752 314.73126Q453.61896 314.825 453.35333 314.95Q453.0877 315.0594 452.93146 315.27814Q452.79083 315.4969 452.79083 315.77814Q452.79083 316.2 453.10333 316.48126Q453.43146 316.7625 454.04083 316.7625Q454.6502 316.7625 455.11896 316.4969Q455.60333 316.23126 455.82208 315.7625Q455.99396 315.40314 455.99396 314.71564L455.99396 314.325Z" fill-rule="nonzero"/><path fill="#000000" d="M504.59412 314.6844L505.65662 314.59064Q505.73474 315.2469 506.016 315.65314Q506.29724 316.0594 506.87537 316.325Q507.46912 316.575 508.2035 316.575Q508.84412 316.575 509.34412 316.3875Q509.84412 316.1844 510.0785 315.85626Q510.3285 315.5125 510.3285 315.1219Q510.3285 314.71564 510.09412 314.41876Q509.85974 314.10626 509.3285 313.90314Q508.96912 313.7625 507.78162 313.48126Q506.60974 313.2 506.141 312.95Q505.516 312.6219 505.21912 312.15314Q504.92224 311.66876 504.92224 311.075Q504.92224 310.4344 505.28162 309.8719Q505.65662 309.29376 506.35974 309.0125Q507.0785 308.71564 507.93787 308.71564Q508.891 308.71564 509.62537 309.02814Q510.35974 309.325 510.75037 309.9344Q511.141 310.52814 511.17224 311.27814L510.0785 311.35626Q509.98474 310.54376 509.46912 310.1375Q508.96912 309.71564 507.98474 309.71564Q506.9535 309.71564 506.48474 310.09064Q506.016 310.46564 506.016 310.9969Q506.016 311.46564 506.34412 311.7625Q506.67224 312.0594 508.04724 312.3719Q509.43787 312.6844 509.9535 312.91876Q510.7035 313.27814 511.06287 313.8094Q511.42224 314.325 511.42224 315.02814Q511.42224 315.71564 511.03162 316.325Q510.641 316.91876 509.90662 317.2625Q509.17224 317.59064 508.25037 317.59064Q507.0785 317.59064 506.28162 317.2625Q505.50037 316.91876 505.04724 316.23126Q504.60974 315.54376 504.59412 314.6844ZM516.9066 316.6844Q516.31287 317.1844 515.766 317.3875Q515.23474 317.59064 514.60974 317.59064Q513.5785 317.59064 513.0316 317.09064Q512.48474 316.59064 512.48474 315.8094Q512.48474 315.35626 512.68787 314.98126Q512.891 314.59064 513.23474 314.3719Q513.5785 314.1375 514.00037 314.02814Q514.29724 313.9344 514.93787 313.85626Q516.2035 313.71564 516.81287 313.4969Q516.81287 313.27814 516.81287 313.23126Q516.81287 312.575 516.516 312.3094Q516.10974 311.96564 515.31287 311.96564Q514.5785 311.96564 514.2191 312.23126Q513.85974 312.48126 513.68787 313.1375L512.6566 312.9969Q512.79724 312.34064 513.12537 311.9344Q513.4535 311.52814 514.06287 311.3094Q514.67224 311.09064 515.4691 311.09064Q516.266 311.09064 516.766 311.27814Q517.266 311.46564 517.50037 311.7469Q517.73474 312.02814 517.8285 312.46564Q517.87537 312.73126 517.87537 313.4344L517.87537 314.84064Q517.87537 316.3094 517.93787 316.7Q518.016 317.09064 518.2191 317.45L517.10974 317.45Q516.9535 317.1219 516.9066 316.6844ZM516.81287 314.325Q516.23474 314.5594 515.0941 314.73126Q514.43787 314.825 514.17224 314.95Q513.9066 315.0594 513.75037 315.27814Q513.60974 315.4969 513.60974 315.77814Q513.60974 316.2 513.92224 316.48126Q514.25037 316.7625 514.85974 316.7625Q515.4691 316.7625 515.93787 316.4969Q516.42224 316.23126 516.641 315.7625Q516.81287 315.40314 516.81287 314.71564L516.81287 314.325ZM520.81287 317.45L519.8285 317.45L519.8285 308.85626L520.891 308.85626L520.891 311.91876Q521.56287 311.09064 522.5941 311.09064Q523.17224 311.09064 523.67224 311.325Q524.18787 311.54376 524.516 311.96564Q524.85974 312.3875 525.04724 312.98126Q525.23474 313.575 525.23474 314.2469Q525.23474 315.84064 524.43787 316.71564Q523.641 317.59064 522.54724 317.59064Q521.43787 317.59064 520.81287 316.66876L520.81287 317.45ZM520.79724 314.29376Q520.79724 315.40314 521.10974 315.90314Q521.60974 316.71564 522.4535 316.71564Q523.141 316.71564 523.641 316.1219Q524.1566 315.52814 524.1566 314.325Q524.1566 313.10626 523.67224 312.52814Q523.18787 311.95 522.50037 311.95Q521.81287 311.95 521.29724 312.5594Q520.79724 313.15314 520.79724 314.29376ZM530.9066 316.6844Q530.31287 317.1844 529.766 317.3875Q529.23474 317.59064 528.60974 317.59064Q527.5785 317.59064 527.0316 317.09064Q526.48474 316.59064 526.48474 315.8094Q526.48474 315.35626 526.68787 314.98126Q526.891 314.59064 527.23474 314.3719Q527.5785 314.1375 528.00037 314.02814Q528.29724 313.9344 528.93787 313.85626Q530.2035 313.71564 530.81287 313.4969Q530.81287 313.27814 530.81287 313.23126Q530.81287 312.575 530.516 312.3094Q530.10974 311.96564 529.31287 311.96564Q528.5785 311.96564 528.2191 312.23126Q527.85974 312.48126 527.68787 313.1375L526.6566 312.9969Q526.79724 312.34064 527.12537 311.9344Q527.4535 311.52814 528.06287 311.3094Q528.67224 311.09064 529.4691 311.09064Q530.266 311.09064 530.766 311.27814Q531.266 311.46564 531.50037 311.7469Q531.73474 312.02814 531.8285 312.46564Q531.87537 312.73126 531.87537 313.4344L531.87537 314.84064Q531.87537 316.3094 531.93787 316.7Q532.016 317.09064 532.2191 317.45L531.10974 317.45Q530.9535 317.1219 530.9066 316.6844ZM530.81287 314.325Q530.23474 314.5594 529.0941 314.73126Q528.43787 314.825 528.17224 314.95Q527.9066 315.0594 527.75037 315.27814Q527.60974 315.4969 527.60974 315.77814Q527.60974 316.2 527.92224 316.48126Q528.25037 316.7625 528.85974 316.7625Q529.4691 316.7625 529.93787 316.4969Q530.42224 316.23126 530.641 315.7625Q530.81287 315.40314 530.81287 314.71564L530.81287 314.325ZM537.87537 317.45L537.87537 316.66876Q537.2816 317.59064 536.141 317.59064Q535.391 317.59064 534.766 317.1844Q534.141 316.7625 533.79724 316.02814Q533.4535 315.29376 533.4535 314.34064Q533.4535 313.41876 533.766 312.65314Q534.0785 311.8875 534.7035 311.4969Q535.3285 311.09064 536.0941 311.09064Q536.6566 311.09064 537.0941 311.325Q537.5316 311.5594 537.81287 311.9344L537.81287 308.85626L538.85974 308.85626L538.85974 317.45L537.87537 317.45ZM534.54724 314.34064Q534.54724 315.54376 535.04724 316.1375Q535.54724 316.71564 536.23474 316.71564Q536.92224 316.71564 537.4066 316.15314Q537.891 315.59064 537.891 314.4344Q537.891 313.15314 537.391 312.5594Q536.9066 311.96564 536.18787 311.96564Q535.48474 311.96564 535.016 312.54376Q534.54724 313.10626 534.54724 314.34064ZM540.4535 314.34064Q540.4535 312.60626 541.4066 311.77814Q542.2035 311.09064 543.35974 311.09064Q544.641 311.09064 545.4535 311.9344Q546.2816 312.7625 546.2816 314.2469Q546.2816 315.45 545.92224 316.1375Q545.56287 316.825 544.85974 317.21564Q544.17224 317.59064 543.35974 317.59064Q542.06287 317.59064 541.25037 316.7625Q540.4535 315.91876 540.4535 314.34064ZM541.5316 314.34064Q541.5316 315.52814 542.04724 316.1219Q542.5785 316.71564 543.35974 316.71564Q544.1566 316.71564 544.67224 316.1219Q545.18787 315.52814 545.18787 314.3094Q545.18787 313.15314 544.6566 312.5594Q544.141 311.96564 543.35974 311.96564Q542.5785 311.96564 542.04724 312.5594Q541.5316 313.1375 541.5316 314.34064Z" fill-rule="nonzero"/><path fill="#4285f4" d="M280.0 19.55C280.0 18.997715 280.44772 18.55 281.0 18.55L291.0 18.55C291.55228 18.55 292.0 18.997715 292.0 19.55L292.0 29.55C292.0 30.102285 291.55228 30.55 291.0 30.55L281.0 30.55C280.44772 30.55 280.0 30.102285 280.0 29.55Z" fill-rule="nonzero"/><path fill="#351c75" d="M308.0 19.55C308.0 18.997715 308.44772 18.55 309.0 18.55L319.0 18.55C319.55228 18.55 320.0 18.997715 320.0 19.55L320.0 29.55C320.0 30.102285 319.55228 30.55 319.0 30.55L309.0 30.55C308.44772 30.55 308.0 30.102285 308.0 29.55Z" fill-rule="nonzero"/></svg>