<svg id="Capa_1" enable-background="new 0 0 510 510" height="512" viewBox="0 0 510 510" width="512" xmlns="http://www.w3.org/2000/svg"><g><path d="m60 465.033h90v29.967h-90z" fill="#c40048"/><path d="m359.956 465.033h90v29.967h-90z" fill="#910035"/><path d="m330 58.86v46.14h-30v-46.14c0-7.64-6.22-13.86-13.86-13.86h-30.14v-30h30.14c24.18 0 43.86 19.68 43.86 43.86z" fill="#910035"/><path d="m256 15v30h-32.14c-7.64 0-13.86 6.22-13.86 13.86v46.14h-30v-46.14c0-24.18 19.68-43.86 43.86-43.86z" fill="#c40048"/><path d="m256 105h254v360h-254z" fill="#c40048"/><path d="m0 105h256v360h-256z" fill="#ff4a4a"/><path d="m255 195c.33 0 .67 0 1 .01v-30c-.33-.01-.67-.01-1-.01-66.17 0-120 53.83-120 120s53.83 120 120 120c.33 0 .67 0 1-.01v-30c-.33.01-.67.01-1 .01-49.63 0-90-40.37-90-90s40.37-90 90-90z" fill="#f1f6f7"/><path d="m375 285c0 65.84-53.29 119.46-119 119.99v-30c49.17-.53 89-40.69 89-89.99s-39.83-89.46-89-89.99v-30c65.71.53 119 54.15 119 119.99z" fill="#dceaec"/><path d="m300 270v30h-30v30h-14v-90h14v30z" fill="#dceaec"/><path d="m256 240v90h-16v-30h-30v-30h30v-30z" fill="#f1f6f7"/><path d="m60 75h90v90h-90z" fill="#ffe377"/><path d="m359.912 75h90.088v90h-90.088z" fill="#fc0"/></g></svg>