<svg id="Capa_1" enable-background="new 0 0 512 512" height="512" viewBox="0 0 512 512" width="512" xmlns="http://www.w3.org/2000/svg"><g><path d="m370.472 197.724v114.576c0 5.69-4.612 10.302-10.302 10.302h-208.34c-5.69 0-10.302-4.612-10.302-10.302v-114.576z" fill="#524798"/><path d="m437.075 458.966v42.732c0 5.687-4.615 10.302-10.302 10.302h-341.546c-5.687 0-10.302-4.615-10.302-10.302v-42.732c0-50.407 32.976-94.88 81.209-109.529l14.969-4.553h169.794l14.969 4.553c48.233 14.65 81.209 59.122 81.209 109.529z" fill="#df75a5"/><path d="m171.107 344.888 19.286 46.286c5.27 12.647 21.11 16.84 31.947 8.457l33.66-26.038v-42.161h-40.585z" fill="#d8e2f1"/><path d="m340.893 344.888-19.286 46.286c-5.27 12.647-21.11 16.84-31.947 8.457l-33.66-26.038v-42.161h40.585z" fill="#d8e2f1"/><path d="m379.778 359.814c.022 1.198.059 2.393.059 3.597 0 59.517-26.655 112.8-68.67 148.59h115.604c5.69 0 10.302-4.612 10.302-10.302v-42.73c0-41.549-22.413-79.048-57.295-99.155z" fill="#dd5790"/><path d="m296.585 333.008v-43.202h-81.171v43.202c0 22.415 18.171 40.585 40.585 40.585 22.416 0 40.586-18.17 40.586-40.585z" fill="#ffddce"/><path d="m215.415 315.307c12.645 4.712 26.319 7.294 40.585 7.294 14.267 0 27.94-2.582 40.585-7.294v-25.501h-81.171v25.501z" fill="#ffcbbe"/><path d="m349.659 136.325v69.724c0 51.726-41.932 93.659-93.659 93.659s-93.659-41.932-93.659-93.659v-69.724z" fill="#ffddce"/><path d="m327.805 137.366v110.309c0 7.327-.843 14.457-2.434 21.3 15.091-16.627 24.288-38.702 24.288-62.926v-68.683z" fill="#ffcbbe"/><path d="m141.528 135.285v24.338h20.813v46.426l10.09-21.392c9.722-20.612 30.466-33.763 53.256-33.763h22.757c13.672 0 26.898-4.757 37.425-13.423.786-.647 1.916-.651 2.682.02l9.298 8.135c3.729 3.263 8.476 5.255 13.431 5.268 7.558.02 14.432 4.389 17.658 11.228l20.72 43.926v-55.154h20.813v-15.61c0-63.221-51.251-114.471-114.471-114.471-63.221 0-114.472 51.251-114.472 114.472z" fill="#5e54ac"/><path d="m256 20.813c-3.509 0-6.978.167-10.407.476 58.343 5.259 104.065 54.284 104.065 113.996v23.179h20.813v-23.179c.001-63.221-51.25-114.472-114.471-114.472z" fill="#524798"/><path d="m366.309 205.008h-16.65v-45.893c0-5.69 4.612-10.302 10.302-10.302h6.349c11.495 0 20.813 9.318 20.813 20.813v14.569c-.001 11.495-9.319 20.813-20.814 20.813z" fill="#ffddce"/><path d="m145.691 205.008h16.65v-45.893c0-5.69-4.612-10.302-10.302-10.302h-6.349c-11.495 0-20.813 9.318-20.813 20.813v14.569c.001 11.495 9.319 20.813 20.814 20.813z" fill="#ffddce"/><path d="m256 0c58.878 0 91.227 16.149 103.915 24.402 3.87 2.518 5.604 7.286 4.238 11.696l-18.49 59.673c-1.336 4.313-5.325 7.253-9.84 7.253h-159.645c-4.515 0-8.504-2.94-9.84-7.253l-18.49-59.673c-1.367-4.41.367-9.178 4.238-11.696 12.687-8.253 45.036-24.402 103.914-24.402z" fill="#d8e2f1"/><path d="m256 0c-5.43 0-10.626.142-15.61.398 31.626 1.623 54.385 8.016 69.653 14.362 14.836 6.166 22.476 22.675 17.72 38.021l-15.568 50.244h23.627c4.515 0 8.504-2.94 9.84-7.253l18.49-59.673c1.367-4.41-.367-9.178-4.238-11.696-12.687-8.254-45.036-24.403-103.914-24.403z" fill="#b7c8ea"/><path d="m274.731 44.306h-11.005v-11.005c0-4.267-3.459-7.726-7.726-7.726s-7.726 3.459-7.726 7.726v11.006h-11.005c-4.268 0-7.726 3.459-7.726 7.726s3.459 7.726 7.726 7.726h11.005v11.005c0 4.267 3.459 7.726 7.726 7.726s7.726-3.459 7.726-7.726v-11.005h11.005c4.268 0 7.726-3.459 7.726-7.726s-3.458-7.727-7.726-7.727z" fill="#dd5790"/><g fill="#da387d"><path d="m352.859 512v-54.114c0-4.267 3.459-7.726 7.726-7.726s7.726 3.459 7.726 7.726v54.114z"/><path d="m143.688 512v-54.114c0-4.267 3.459-7.726 7.726-7.726s7.726 3.459 7.726 7.726v54.114z"/></g></g></svg>