<svg height="512" viewBox="0 0 64 64" width="512" xmlns="http://www.w3.org/2000/svg"><g id="Filled_outline" data-name="Filled outline"><path d="m23 36c0-3.4-2.026-6-5-6a5 5 0 0 0 -3 1 1.748 1.748 0 0 1 -2 0 5 5 0 0 0 -3-1c-2.974 0-5 2.6-5 6a8.455 8.455 0 0 0 1 4c2.938 5.759 2.134 9 4 9h7c1.866 0 2.062-3.241 5-9a8.455 8.455 0 0 0 1-4z" fill="#e5e4c7"/><path d="m41 36c0-3.4-2.026-6-5-6a5 5 0 0 0 -3 1 1.748 1.748 0 0 1 -2 0 5 5 0 0 0 -3-1c-2.974 0-5 2.6-5 6a8.455 8.455 0 0 0 1 4c2.938 5.759 2.134 9 4 9h7c1.866 0 2.062-3.241 5-9a8.455 8.455 0 0 0 1-4z" fill="#efedcb"/><path d="m59 36c0-3.4-2.026-6-5-6a5 5 0 0 0 -3 1 1.748 1.748 0 0 1 -2 0 5 5 0 0 0 -3-1c-2.974 0-5 2.6-5 6a8.455 8.455 0 0 0 1 4c2.938 5.759 2.134 9 4 9h7c1.866 0 2.062-3.241 5-9a8.455 8.455 0 0 0 1-4z" fill="#e5e4c7"/><path d="m59 43h-2.406a11.573 11.573 0 0 1 -6.594 2 12.071 12.071 0 0 1 -6.688-2h-4.719c-.962 1.164-3.546 2-6.593 2s-5.631-.836-6.593-2h-4.813a11.573 11.573 0 0 1 -6.594 2 12.077 12.077 0 0 1 -6.689-2h-2.311a2 2 0 0 0 -2 2v10h58v-10a2 2 0 0 0 -2-2z" fill="#f98c96"/><path d="m25 16h4v6h-4z" fill="#ffd782"/><path d="m29 16h4v6h-4z" fill="#f9bb4b"/><path d="m33 16h4v6h-4z" fill="#ffd782"/><path d="m37 16h4v6h-4z" fill="#f9bb4b"/><path d="m46 10-2 1h-17a2 2 0 0 0 -2 2v3h19l2 1h15v-7z" fill="#6caade"/><g fill="#87cee9"><circle cx="16" cy="21" r="4"/><circle cx="49" cy="24" r="3"/><circle cx="19" cy="11" r="2"/></g><path d="m59 42h-.864q.355-.767.754-1.544a9.448 9.448 0 0 0 1.11-4.456c0-4.056-2.523-7-6-7a5.982 5.982 0 0 0 -3.607 1.2.753.753 0 0 1 -.788 0 5.978 5.978 0 0 0 -3.605-1.2 5.658 5.658 0 0 0 -5 2.974 5.658 5.658 0 0 0 -5-2.974 5.982 5.982 0 0 0 -3.607 1.2.753.753 0 0 1 -.788 0 5.978 5.978 0 0 0 -3.605-1.2 5.658 5.658 0 0 0 -5 2.974 5.658 5.658 0 0 0 -5-2.974 5.982 5.982 0 0 0 -3.607 1.2.753.753 0 0 1 -.788 0 5.978 5.978 0 0 0 -3.605-1.2c-3.477 0-6 2.944-6 7a9.455 9.455 0 0 0 1.11 4.457c.265.516.5 1.028.725 1.543h-.835a3 3 0 0 0 -3 3v10a1 1 0 0 0 1 1h58a1 1 0 0 0 1-1v-10a3 3 0 0 0 -3-3zm-13-11a4.023 4.023 0 0 1 2.393.8 2.764 2.764 0 0 0 3.212 0 4.028 4.028 0 0 1 2.395-.8c2.355 0 4 2.056 4 5a7.408 7.408 0 0 1 -.89 3.543c-.483.94-.918 1.875-1.309 2.79a10.73 10.73 0 0 1 -5.801 1.667 11.369 11.369 0 0 1 -5.878-1.661 26.4 26.4 0 0 0 -1.232-2.8 7.415 7.415 0 0 1 -.89-3.539c0-2.944 1.645-5 4-5zm-5.11 9.456c.042-.082.07-.163.11-.246.04.083.068.164.11.247.265.516.5 1.028.725 1.543h-1.7q.356-.767.755-1.544zm-12.89-9.456a4.023 4.023 0 0 1 2.393.8 2.764 2.764 0 0 0 3.212 0 4.028 4.028 0 0 1 2.395-.8c2.355 0 4 2.056 4 5a7.408 7.408 0 0 1 -.89 3.543c-.5.97-.947 1.934-1.347 2.876-.726.795-2.896 1.581-5.763 1.581-2.934 0-5.149-.823-5.822-1.637-.019-.022-.047-.031-.067-.052a26.39 26.39 0 0 0 -1.221-2.767 7.415 7.415 0 0 1 -.89-3.544c0-2.944 1.645-5 4-5zm-5.11 9.456c.042-.082.07-.163.11-.246.04.083.068.164.11.247.265.516.5 1.028.725 1.543h-1.7q.357-.767.755-1.544zm-12.89-9.456a4.023 4.023 0 0 1 2.393.8 2.764 2.764 0 0 0 3.212 0 4.028 4.028 0 0 1 2.395-.8c2.355 0 4 2.056 4 5a7.408 7.408 0 0 1 -.89 3.543c-.483.94-.918 1.875-1.309 2.79a10.73 10.73 0 0 1 -5.801 1.667 11.369 11.369 0 0 1 -5.878-1.661 26.4 26.4 0 0 0 -1.232-2.8 7.415 7.415 0 0 1 -.89-3.539c0-2.944 1.645-5 4-5zm50 23h-56v-9a1 1 0 0 1 1-1h2.005a13.27 13.27 0 0 0 7 2 12.807 12.807 0 0 0 6.908-2h4.076c1.34 1.227 4.011 2 7.011 2s5.671-.773 7.016-2h3.989a13.27 13.27 0 0 0 6.995 2 12.807 12.807 0 0 0 6.908-2h2.092a1 1 0 0 1 1 1z"/><path d="m61 9h-15a1 1 0 0 0 -.447.105l-1.789.895h-16.764a3 3 0 0 0 -3 3v9a1 1 0 0 0 1 1h16a1 1 0 0 0 1-1v-5h1.764l1.789.895a1 1 0 0 0 .447.105h15a1 1 0 0 0 1-1v-7a1 1 0 0 0 -1-1zm-33 12h-2v-4h2zm4 0h-2v-4h2zm4 0h-2v-4h2zm4 0h-2v-4h2zm20-5h-13.764l-1.789-.895a1 1 0 0 0 -.447-.105h-18v-2a1 1 0 0 1 1-1h17a1 1 0 0 0 .447-.105l1.789-.895h13.764z"/><path d="m11 21a5 5 0 1 0 5-5 5.006 5.006 0 0 0 -5 5zm8 0a3 3 0 1 1 -3-3 3 3 0 0 1 3 3z"/><path d="m49 28a4 4 0 1 0 -4-4 4 4 0 0 0 4 4zm0-6a2 2 0 1 1 -2 2 2 2 0 0 1 2-2z"/><path d="m9.948 38.684c-.856-2.57-.407-3.337-.249-3.511a1.269 1.269 0 0 1 1.068-.2l.475-1.943a3.212 3.212 0 0 0 -3.007.78c-1 1.079-1.059 2.88-.183 5.506z"/><path d="m54.3 35.169c.16.172.614.935-.245 3.515l1.9.632c.876-2.626.816-4.427-.183-5.506a3.212 3.212 0 0 0 -3.007-.78l.484 1.94c.002.001.727-.149 1.051.199z"/><path d="m22 11a3 3 0 1 0 -3 3 3 3 0 0 0 3-3zm-4 0a1 1 0 1 1 1 1 1 1 0 0 1 -1-1z"/></g></svg>